<svg xmlns="http://www.w3.org/2000/svg" version="1.1" xmlns:xlink="http://www.w3.org/1999/xlink" xmlns:svgjs="http://svgjs.dev/svgjs" width="2000" height="1222" viewBox="0 0 2000 1222"><g transform="matrix(1,0,0,1,-1.2121212121212466,-0.6697074961053886)"><svg viewBox="0 0 396 242" data-background-color="#ffffff" preserveAspectRatio="xMidYMid meet" height="1222" width="2000" xmlns="http://www.w3.org/2000/svg" xmlns:xlink="http://www.w3.org/1999/xlink"><g id="tight-bounds" transform="matrix(1,0,0,1,0.2400000000000091,0.13262619808307363)"><svg viewBox="0 0 395.52 241.73474760383385" height="241.73474760383385" width="395.52"><g><svg viewBox="0 0 395.52 241.73474760383385" height="241.73474760383385" width="395.52"><g><svg viewBox="0 0 395.52 241.73474760383385" height="241.73474760383385" width="395.52"><g id="textblocktransform"><svg viewBox="0 0 395.52 241.73474760383385" height="241.73474760383385" width="395.52" id="textblock"><g><svg viewBox="0 0 395.52 241.73474760383385" height="241.73474760383385" width="395.52"><g transform="matrix(1,0,0,1,0,0)"><svg width="395.52" viewBox="2.25 -37.5 76.41 46.7" height="241.73474760383385" data-palette-color="#252422"><path d="M26.25-2.95L2.25-15.09 2.25-17.7 26.25-29.71 26.25-25.66 6.74-16.41 26.25-6.96 26.25-2.95ZM53.39-37.5L31.35 9.2 27.51 9.2 49.56-37.5 53.39-37.5ZM54.66-29.71L78.66-17.7 78.66-15.09 54.66-2.95 54.66-6.96 74.14-16.41 54.66-25.66 54.66-29.71Z" opacity="1" transform="matrix(1,0,0,1,0,0)" fill="#252422" class="wordmark-text-0" data-fill-palette-color="primary" id="text-0"></path></svg></g></svg></g></svg></g></svg></g></svg></g><defs></defs></svg><rect width="395.52" height="241.73474760383385" fill="none" stroke="none" visibility="hidden"></rect></g></svg></g></svg>