<?xml version="1.0" encoding="UTF-8"?>
<svg id="a" xmlns="http://www.w3.org/2000/svg" xmlns:xlink="http://www.w3.org/1999/xlink" viewBox="0 0 1301.22 731.67">
  <defs>
    <style>
      .cls-1 {
        fill: url(#linear-gradient);
      }

      .cls-1, .cls-2, .cls-3, .cls-4, .cls-5, .cls-6, .cls-7, .cls-8, .cls-9, .cls-10, .cls-11, .cls-12, .cls-13, .cls-14, .cls-15 {
        stroke-width: 0px;
      }

      .cls-2 {
        fill: url(#linear-gradient-2);
      }

      .cls-4 {
        fill: #fabd05;
      }

      .cls-5 {
        fill: #34a852;
      }

      .cls-6 {
        fill: #4384f3;
      }

      .cls-7 {
        fill: #4285f4;
      }

      .cls-8 {
        fill: #d2e3fc;
      }

      .cls-9 {
        fill: #c6daf7;
      }

      .cls-10 {
        fill: #f1f3f4;
      }

      .cls-11 {
        fill: #fef7e0;
      }

      .cls-12 {
        fill: #fff;
      }

      .cls-13 {
        fill: #e8eaed;
      }

      .cls-14 {
        fill: #e8f0fe;
      }

      .cls-15 {
        fill: #e6f4ea;
      }
    </style>
    <linearGradient id="linear-gradient" x1="553.36" y1="416.19" x2="600.42" y2="416.19" gradientUnits="userSpaceOnUse">
      <stop offset=".04" stop-color="#e780cc"/>
      <stop offset=".18" stop-color="#a280cc"/>
      <stop offset="1" stop-color="#15b1e9"/>
    </linearGradient>
    <linearGradient id="linear-gradient-2" x1="591.2" y1="394.16" x2="608.05" y2="394.16" xlink:href="#linear-gradient"/>
  </defs>
  <rect class="cls-10" width="1301.22" height="731.67"/>
  <g>
    <g>
      <g>
        <path class="cls-9" d="m135.39,720.59H.8v-57.77h134.59v57.77Zm-133.94-.65h133.29v-56.47H1.45v56.47Z"/>
        <path class="cls-9" d="m135.39,663.47H.8v-57.77h134.59v57.77Zm-133.94-.65h133.29v-56.47H1.45v56.47Z"/>
        <path class="cls-9" d="m135.39,606.32H.8v-57.77h134.59v57.77Zm-133.94-.65h133.29v-56.47H1.45v56.47Z"/>
        <path class="cls-9" d="m135.39,549.18H.8v-57.77h134.59v57.77Zm-133.94-.65h133.29v-56.47H1.45v56.47Z"/>
      </g>
      <g>
        <path class="cls-9" d="m269.33,730.79h-134.59v-39.76h134.59v39.76Zm-133.94-.65h133.29v-38.45h-133.29v38.45Z"/>
        <path class="cls-9" d="m269.33,691.69h-134.59v-57.77h134.59v57.77Zm-133.94-.65h133.29v-56.47h-133.29v56.47Z"/>
        <path class="cls-9" d="m269.33,634.54h-134.59v-57.77h134.59v57.77Zm-133.94-.65h133.29v-56.47h-133.29v56.47Z"/>
        <path class="cls-9" d="m269.33,577.4h-134.59v-57.77h134.59v57.77Zm-133.94-.65h133.29v-56.47h-133.29v56.47Z"/>
      </g>
      <path class="cls-9" d="m403.28,730.79h-134.59v-39.76h134.59v39.76Zm-133.94-.65h133.29v-38.45h-133.29v38.45Z"/>
    </g>
    <g>
      <g>
        <path class="cls-9" d="m1301.09,730.79h-114.57v-39.76h114.57v39.76Zm-113.92-.65h113.27v-38.45h-113.27v38.45Z"/>
        <path class="cls-9" d="m1301.09,691.69h-114.57v-57.77h114.57v57.77Zm-113.92-.65h113.27v-56.47h-113.27v56.47Z"/>
      </g>
      <path class="cls-9" d="m1187.16,730.79h-134.59v-39.76h134.59v39.76Zm-133.94-.65h133.29v-38.45h-133.29v38.45Z"/>
    </g>
    <g>
      <g>
        <path class="cls-9" d="m135.63,53.77H1.04V0h134.59v53.77ZM1.69,53.12h133.29V0H1.69v53.12Z"/>
        <path class="cls-9" d="m135.63,110.89H1.04v-57.77h134.59v57.77Zm-133.94-.65h133.29v-56.47H1.69v56.47Z"/>
      </g>
      <path class="cls-9" d="m269.57,53.77h-134.59V0h134.59v53.77Zm-133.94-.65h133.29V0h-133.29v53.12Z"/>
    </g>
    <g>
      <g>
        <path class="cls-9" d="m1301.02,83.46h-114.57V25.68h114.57v57.77Zm-113.92-.65h113.27V26.33h-113.27v56.47Z"/>
        <path class="cls-9" d="m1301.02,140.58h-114.57v-57.77h114.57v57.77Zm-113.92-.65h113.27v-56.47h-113.27v56.47Z"/>
        <path class="cls-9" d="m1301.02,197.72h-114.57v-57.77h114.57v57.77Zm-113.92-.65h113.27v-56.47h-113.27v56.47Z"/>
        <path class="cls-9" d="m1301.02,254.87h-114.57v-57.77h114.57v57.77Zm-113.92-.65h113.27v-56.47h-113.27v56.47Z"/>
      </g>
      <g>
        <path class="cls-9" d="m1187.1,55.24h-134.59V0h134.59v55.24Zm-133.94-.65h133.29V0h-133.29v54.59Z"/>
        <path class="cls-9" d="m1187.1,112.36h-134.59v-57.77h134.59v57.77Zm-133.94-.65h133.29v-56.47h-133.29v56.47Z"/>
        <path class="cls-9" d="m1187.1,169.5h-134.59v-57.77h134.59v57.77Zm-133.94-.65h133.29v-56.47h-133.29v56.47Z"/>
        <path class="cls-9" d="m1187.1,226.65h-134.59v-57.77h134.59v57.77Zm-133.94-.65h133.29v-56.47h-133.29v56.47Z"/>
      </g>
      <path class="cls-9" d="m1053.15,55.24h-134.59V0h134.59v55.24Zm-133.94-.65h133.29V0h-133.29v54.59Z"/>
    </g>
  </g>
  <g>
    <path class="cls-3" d="m542.21,541.37c-14.45,0-25.5-2.48-33.91-5.99-23.5-9.8-35.85-30.98-36.7-62.96-1.71-63.98,24.52-111.53,52.29-161.87,18.35-33.26,37.33-67.66,49.85-109.21,7.29-24.21,4.86-44.27-7.22-59.62-31.52-40.05-118.99-35.68-119.87-35.63l-.08-1.47c.22-.01,22.46-1.19,48.35,2.65,23.95,3.55,56.02,12.26,72.76,33.53,12.4,15.75,14.91,36.26,7.47,60.95-12.56,41.7-31.58,76.17-49.97,109.5-27.68,50.16-53.82,97.54-52.11,161.12.84,31.35,12.88,52.09,35.8,61.65,19.3,8.05,45.77,7.81,78.68-.7,34.36-8.89,75.1-26.66,121.09-52.83,100.53-57.21,224.94-154.39,359.77-281.02l1.01,1.07c-134.92,126.71-259.42,223.95-360.05,281.22-80.76,45.96-133.28,59.59-167.15,59.6Z"/>
    <g>
      <g>
        <rect class="cls-12" x="183.35" y="182.6" width="251.77" height="393.25" rx="15.07" ry="15.07"/>
        <path class="cls-3" d="m420.06,576.42h-221.64c-8.62,0-15.63-7.01-15.63-15.63V197.67c0-8.62,7.01-15.63,15.63-15.63h221.64c8.62,0,15.63,7.01,15.63,15.63v363.12c0,8.62-7.01,15.63-15.63,15.63ZM198.42,183.17c-8,0-14.5,6.51-14.5,14.5v363.12c0,8,6.51,14.5,14.5,14.5h221.64c8,0,14.5-6.51,14.5-14.5V197.67c0-8-6.51-14.5-14.5-14.5h-221.64Z"/>
      </g>
      <g>
        <rect class="cls-8" x="203.26" y="204.77" width="106.18" height="23.79" rx="1.98" ry="1.98"/>
        <path class="cls-3" d="m307.46,229.13h-102.22c-1.4,0-2.54-1.14-2.54-2.54v-19.83c0-1.4,1.14-2.54,2.54-2.54h102.22c1.4,0,2.54,1.14,2.54,2.54v19.83c0,1.4-1.14,2.54-2.54,2.54Zm-102.22-23.79c-.78,0-1.41.63-1.41,1.41v19.83c0,.78.63,1.41,1.41,1.41h102.22c.78,0,1.41-.63,1.41-1.41v-19.83c0-.78-.63-1.41-1.41-1.41h-102.22Z"/>
      </g>
      <g>
        <rect class="cls-11" x="203.26" y="425.45" width="211.37" height="23.79" rx="1.98" ry="1.98"/>
        <path class="cls-3" d="m412.65,449.8h-207.42c-1.4,0-2.54-1.14-2.54-2.54v-19.83c0-1.4,1.14-2.54,2.54-2.54h207.42c1.4,0,2.54,1.14,2.54,2.54v19.83c0,1.4-1.14,2.54-2.54,2.54Zm-207.42-23.79c-.78,0-1.41.63-1.41,1.41v19.83c0,.78.63,1.41,1.41,1.41h207.42c.78,0,1.41-.63,1.41-1.41v-19.83c0-.78-.63-1.41-1.41-1.41h-207.42Z"/>
      </g>
      <g>
        <rect class="cls-11" x="221.45" y="332.56" width="42.27" height="63.05" rx="21.14" ry="21.14"/>
        <path class="cls-3" d="m242.59,396.1c-11.92,0-21.62-9.7-21.62-21.62v-20.78c0-11.92,9.7-21.62,21.62-21.62s21.62,9.7,21.62,21.62v20.78c0,11.92-9.7,21.62-21.62,21.62Zm0-63.05c-11.39,0-20.65,9.27-20.65,20.65v20.78c0,11.39,9.27,20.66,20.65,20.66s20.65-9.27,20.65-20.66v-20.78c0-11.39-9.27-20.65-20.65-20.65Z"/>
      </g>
      <g>
        <path class="cls-13" d="m263.63,556.06h-57.29c-1.52,0-2.75-1.23-2.75-2.75v-29.32c0-1.52,1.23-2.75,2.75-2.75h57.29c1.52,0,2.75,1.23,2.75,2.75v29.32c0,1.52-1.23,2.75-2.75,2.75Zm-57.29-33.28c-.66,0-1.2.54-1.2,1.2v29.32c0,.66.54,1.2,1.2,1.2h57.29c.66,0,1.2-.54,1.2-1.2v-29.32c0-.66-.54-1.2-1.2-1.2h-57.29Z"/>
        <path class="cls-6" d="m250.74,540.66h-34.12c-.86,0-1.55-.69-1.55-1.55s.69-1.55,1.55-1.55h34.12c.86,0,1.55.69,1.55,1.55s-.69,1.55-1.55,1.55Z"/>
      </g>
    </g>
    <g>
      <g>
        <rect class="cls-12" x="524.72" y="233.44" width="251.77" height="393.25" rx="15.07" ry="15.07"/>
        <path class="cls-3" d="m761.43,627.26h-221.64c-8.62,0-15.63-7.01-15.63-15.63V248.51c0-8.62,7.01-15.63,15.63-15.63h221.64c8.62,0,15.63,7.01,15.63,15.63v363.12c0,8.62-7.01,15.63-15.63,15.63Zm-221.64-393.25c-8,0-14.5,6.51-14.5,14.5v363.12c0,8,6.51,14.5,14.5,14.5h221.64c8,0,14.5-6.51,14.5-14.5V248.51c0-8-6.51-14.5-14.5-14.5h-221.64Z"/>
      </g>
      <g>
        <rect class="cls-8" x="544.63" y="255.62" width="106.18" height="23.79" rx="1.98" ry="1.98"/>
        <path class="cls-3" d="m648.83,279.97h-102.22c-1.4,0-2.54-1.14-2.54-2.54v-19.83c0-1.4,1.14-2.54,2.54-2.54h102.22c1.4,0,2.54,1.14,2.54,2.54v19.83c0,1.4-1.14,2.54-2.54,2.54Zm-102.22-23.79c-.78,0-1.41.63-1.41,1.41v19.83c0,.78.63,1.41,1.41,1.41h102.22c.78,0,1.41-.63,1.41-1.41v-19.83c0-.78-.63-1.41-1.41-1.41h-102.22Z"/>
      </g>
      <g>
        <rect class="cls-14" x="562.82" y="383.4" width="42.27" height="63.05" rx="21.14" ry="21.14"/>
        <path class="cls-3" d="m583.96,446.94c-11.92,0-21.62-9.7-21.62-21.62v-20.78c0-11.92,9.7-21.62,21.62-21.62s21.62,9.7,21.62,21.62v20.78c0,11.92-9.7,21.62-21.62,21.62Zm0-63.05c-11.39,0-20.65,9.27-20.65,20.66v20.78c0,11.39,9.27,20.65,20.65,20.65s20.65-9.27,20.65-20.65v-20.78c0-11.39-9.27-20.66-20.65-20.66Z"/>
      </g>
    </g>
    <g>
      <path class="cls-13" d="m606.09,605.31h-57.29c-1.52,0-2.75-1.23-2.75-2.75v-29.32c0-1.52,1.23-2.75,2.75-2.75h57.29c1.52,0,2.75,1.23,2.75,2.75v29.32c0,1.52-1.23,2.75-2.75,2.75Zm-57.29-33.28c-.66,0-1.2.54-1.2,1.2v29.32c0,.66.54,1.2,1.2,1.2h57.29c.66,0,1.2-.54,1.2-1.2v-29.32c0-.66-.54-1.2-1.2-1.2h-57.29Z"/>
      <path class="cls-6" d="m593.2,589.91h-34.12c-.86,0-1.55-.69-1.55-1.55s.69-1.55,1.55-1.55h34.12c.86,0,1.55.69,1.55,1.55s-.69,1.55-1.55,1.55Z"/>
    </g>
    <g>
      <rect class="cls-14" x="543.34" y="480.91" width="211.37" height="23.79" rx="1.98" ry="1.98"/>
      <path class="cls-3" d="m752.73,505.26h-207.42c-1.4,0-2.54-1.14-2.54-2.54v-19.83c0-1.4,1.14-2.54,2.54-2.54h207.42c1.4,0,2.54,1.14,2.54,2.54v19.83c0,1.4-1.14,2.54-2.54,2.54Zm-207.42-23.79c-.78,0-1.41.63-1.41,1.41v19.83c0,.78.63,1.41,1.41,1.41h207.42c.78,0,1.41-.63,1.41-1.41v-19.83c0-.78-.63-1.41-1.41-1.41h-207.42Z"/>
    </g>
    <g>
      <g>
        <rect class="cls-12" x="866.09" y="154.76" width="251.77" height="393.25" rx="15.07" ry="15.07"/>
        <path class="cls-3" d="m1102.8,548.58h-221.64c-8.62,0-15.63-7.01-15.63-15.63V169.83c0-8.62,7.01-15.63,15.63-15.63h221.64c8.62,0,15.63,7.01,15.63,15.63v363.12c0,8.62-7.01,15.63-15.63,15.63Zm-221.64-393.25c-8,0-14.5,6.51-14.5,14.5v363.12c0,8,6.51,14.5,14.5,14.5h221.64c8,0,14.5-6.51,14.5-14.5V169.83c0-8-6.51-14.5-14.5-14.5h-221.64Z"/>
      </g>
      <g>
        <rect class="cls-8" x="886" y="176.93" width="106.18" height="23.79" rx="1.98" ry="1.98"/>
        <path class="cls-3" d="m990.2,201.28h-102.22c-1.4,0-2.54-1.14-2.54-2.54v-19.83c0-1.4,1.14-2.54,2.54-2.54h102.22c1.4,0,2.54,1.14,2.54,2.54v19.83c0,1.4-1.14,2.54-2.54,2.54Zm-102.22-23.79c-.78,0-1.41.63-1.41,1.41v19.83c0,.78.63,1.41,1.41,1.41h102.22c.78,0,1.41-.63,1.41-1.41v-19.83c0-.78-.63-1.41-1.41-1.41h-102.22Z"/>
      </g>
      <g>
        <rect class="cls-15" x="904.19" y="304.72" width="42.27" height="63.05" rx="21.14" ry="21.14"/>
        <path class="cls-3" d="m925.33,368.25c-11.92,0-21.62-9.7-21.62-21.62v-20.78c0-11.92,9.7-21.62,21.62-21.62s21.62,9.7,21.62,21.62v20.78c0,11.92-9.7,21.62-21.62,21.62Zm0-63.05c-11.39,0-20.65,9.27-20.65,20.66v20.78c0,11.39,9.27,20.65,20.65,20.65s20.65-9.27,20.65-20.65v-20.78c0-11.39-9.27-20.66-20.65-20.66Z"/>
      </g>
    </g>
    <g>
      <path class="cls-13" d="m947.98,526.77h-57.29c-1.52,0-2.75-1.23-2.75-2.75v-29.32c0-1.52,1.23-2.75,2.75-2.75h57.29c1.52,0,2.75,1.23,2.75,2.75v29.32c0,1.52-1.23,2.75-2.75,2.75Zm-57.29-33.28c-.66,0-1.2.54-1.2,1.2v29.32c0,.66.54,1.2,1.2,1.2h57.29c.66,0,1.2-.54,1.2-1.2v-29.32c0-.66-.54-1.2-1.2-1.2h-57.29Z"/>
      <path class="cls-6" d="m935.09,511.37h-34.12c-.86,0-1.55-.69-1.55-1.55s.69-1.55,1.55-1.55h34.12c.86,0,1.55.69,1.55,1.55s-.69,1.55-1.55,1.55Z"/>
    </g>
    <g>
      <rect class="cls-15" x="885.51" y="401.2" width="211.37" height="23.79" rx="1.98" ry="1.98"/>
      <path class="cls-3" d="m1094.9,425.56h-207.42c-1.4,0-2.54-1.14-2.54-2.54v-19.83c0-1.4,1.14-2.54,2.54-2.54h207.42c1.4,0,2.54,1.14,2.54,2.54v19.83c0,1.4-1.14,2.54-2.54,2.54Zm-207.42-23.79c-.78,0-1.41.63-1.41,1.41v19.83c0,.78.63,1.41,1.41,1.41h207.42c.78,0,1.41-.63,1.41-1.41v-19.83c0-.78-.63-1.41-1.41-1.41h-207.42Z"/>
    </g>
  </g>
  <g>
    <polygon class="cls-3" points="338.64 539.51 337.58 539.35 340.26 521.17 362.82 521.17 362.82 522.24 341.19 522.24 338.64 539.51"/>
    <polygon class="cls-3" points="343.34 630.67 322.67 630.67 325.08 612.04 326.14 612.18 323.89 629.6 343.34 629.6 343.34 630.67"/>
    <polygon class="cls-3" points="445.62 540.37 444.56 540.24 446.81 521.94 426.48 521.94 426.48 520.87 448.02 520.87 445.62 540.37"/>
    <polygon class="cls-3" points="430.43 630.96 407.59 630.96 407.59 629.89 429.52 629.89 432.35 612.6 433.41 612.78 430.43 630.96"/>
    <g>
      <rect class="cls-6" x="371.6" y="561.96" width="28.96" height="28.96" transform="translate(520.68 -104.16) rotate(45)"/>
      <path class="cls-3" d="m386.08,597.79l-21.35-21.35,21.35-21.35,21.35,21.35-21.35,21.35Zm-19.6-21.35l19.6,19.6,19.6-19.6-19.6-19.6-19.6,19.6Z"/>
    </g>
  </g>
  <g>
    <g>
      <polygon class="cls-4" points="1209.76 363.17 1209.76 432.52 1229.06 404.92 1260.37 401.78 1209.76 363.17"/>
      <path class="cls-3" d="m1208.93,435.16v-73.66l53.62,40.9-33.03,3.32-20.6,29.44Zm1.66-70.3v65.03l18.01-25.75,29.6-2.97-47.61-36.31Z"/>
    </g>
    <g>
      <line class="cls-4" x1="1243.71" y1="432.95" x2="1229.27" y2="405.06"/>
      <rect class="cls-3" x="1235.42" y="403.3" width="2.14" height="31.4" transform="translate(-54.18 615.61) rotate(-27.38)"/>
    </g>
  </g>
  <g>
    <circle class="cls-7" cx="1080.87" cy="187.5" r="17.23"/>
    <path class="cls-3" d="m1080.87,205.26c-9.79,0-17.76-7.97-17.76-17.76s7.97-17.76,17.76-17.76,17.76,7.97,17.76,17.76-7.97,17.76-17.76,17.76Zm0-34.45c-9.2,0-16.69,7.49-16.69,16.69s7.49,16.69,16.69,16.69,16.69-7.49,16.69-16.69-7.49-16.69-16.69-16.69Z"/>
  </g>
  <g>
    <rect class="cls-3" x="55.3" y="660.72" width="346.53" height="1.87"/>
    <g>
      <path class="cls-5" d="m177.07,661.66s-16.48-87.43-105.74-108.03c0,0-5.95,49.9,75.07,92.01,0,0-59.05-28.38-91.1,16.02h121.77Z"/>
      <path class="cls-3" d="m178.14,662.55H53.57l1.02-1.41c9.27-12.85,26.92-27.62,58.36-25.03,8.63.71,16.46,2.61,22.42,4.45-21.25-12.44-45.4-31.13-57.68-56.33-8.66-17.77-7.3-30.19-7.24-30.71l.12-.98.96.22c46.41,10.71,72.87,39.7,86.9,62.14,15.19,24.29,19.48,46.38,19.52,46.6l.2,1.05Zm-121.07-1.78h118.91c-1.04-4.64-5.93-23.97-19.09-44.99-13.75-21.96-39.58-50.3-84.74-61.05-.12,3.28.1,14.34,7.2,28.85,7.84,16.03,25.91,39.67,67.47,61.27l-.79,1.59c-.15-.07-14.87-7.06-33.27-8.56-23.91-1.95-42.63,5.75-55.68,22.89Z"/>
    </g>
  </g>
  <path class="cls-3" d="m804.08,251.81h-72.06v-72.06h72.06v72.06Zm-70.93-1.13h69.81v-69.81h-69.81v69.81Z"/>
  <g>
    <path class="cls-3" d="m433.69,139.2h-56.29c-7.49,0-13.58-6.09-13.58-13.58v-33.3c0-7.49,6.09-13.58,13.58-13.58h56.29c7.49,0,13.58,6.09,13.58,13.58v33.3c0,7.49-6.09,13.58-13.58,13.58Zm-56.29-59.19c-6.78,0-12.3,5.52-12.3,12.3v33.3c0,6.78,5.52,12.3,12.3,12.3h56.29c6.78,0,12.3-5.52,12.3-12.3v-33.3c0-6.78-5.52-12.3-12.3-12.3h-56.29Z"/>
    <g>
      <g>
        <circle class="cls-7" cx="405.54" cy="101.19" r="10.72"/>
        <path class="cls-3" d="m405.55,112.6c-6.29,0-11.41-5.12-11.41-11.41s5.12-11.41,11.41-11.41,11.41,5.12,11.41,11.41-5.12,11.41-11.41,11.41Zm0-21.44c-5.53,0-10.03,4.5-10.03,10.03s4.5,10.03,10.03,10.03,10.03-4.5,10.03-10.03-4.5-10.03-10.03-10.03Z"/>
      </g>
      <g>
        <path class="cls-7" d="m386.25,137.59c0-10.66,8.64-19.3,19.3-19.3s19.3,8.64,19.3,19.3"/>
        <path class="cls-3" d="m425.53,137.59h-1.38c0-10.26-8.35-18.61-18.61-18.61s-18.61,8.35-18.61,18.61h-1.38c0-11.02,8.97-19.99,19.99-19.99s19.99,8.97,19.99,19.99Z"/>
      </g>
    </g>
  </g>
  <g>
    <g>
      <rect class="cls-4" x="364.46" y="157.53" width="82.18" height="59.19" rx="12.94" ry="12.94"/>
      <path class="cls-3" d="m433.69,217.25h-56.29c-7.43,0-13.48-6.04-13.48-13.48v-33.3c0-7.43,6.05-13.48,13.48-13.48h56.29c7.43,0,13.48,6.05,13.48,13.48v33.3c0,7.43-6.05,13.48-13.48,13.48Zm-56.29-59.19c-6.84,0-12.41,5.57-12.41,12.41v33.3c0,6.84,5.57,12.41,12.41,12.41h56.29c6.84,0,12.41-5.57,12.41-12.41v-33.3c0-6.84-5.57-12.41-12.41-12.41h-56.29Z"/>
    </g>
    <g>
      <path class="cls-3" d="m405.55,190.75c-6.29,0-11.41-5.12-11.41-11.41s5.12-11.41,11.41-11.41,11.41,5.12,11.41,11.41-5.12,11.41-11.41,11.41Zm0-21.44c-5.53,0-10.03,4.5-10.03,10.03s4.5,10.03,10.03,10.03,10.03-4.5,10.03-10.03-4.5-10.03-10.03-10.03Z"/>
      <path class="cls-3" d="m425.53,215.74h-1.38c0-10.26-8.35-18.61-18.61-18.61s-18.61,8.35-18.61,18.61h-1.38c0-11.02,8.97-19.99,19.99-19.99s19.99,8.97,19.99,19.99Z"/>
    </g>
  </g>
  <g>
    <path class="cls-5" d="m833.69,626.2h-151.13s16.12-50.51,43.13-52.06c27-1.55,2.33,36.52,2.33,36.52,0,0,29.72-44.68,56.92-44.87,27.2-.19,21.17,21.76,18.07,26.81-3.11,5.05-11.46,16.51-20.98,22.92,0,0,42.15-18.26,51.67,10.68Z"/>
    <path class="cls-3" d="m834.7,626.93h-153.14l.3-.95c.04-.13,4.14-12.85,11.5-25.59,9.82-17,20.98-26.33,32.28-26.98,6-.34,10.04,1.21,12.03,4.62,3.37,5.8-.06,15.76-3.63,23.23,3.09-3.92,7.1-8.71,11.71-13.47,14.51-15,27.69-22.65,39.18-22.73,9.94-.1,16.52,2.72,19.67,8.31,3.97,7.04.99,16.42-.97,19.61-2.96,4.81-9.5,13.7-17.19,20.12,2.44-.82,5.68-1.78,9.3-2.55,7.34-1.56,17.85-2.63,26.22,1.14,6.01,2.7,10.19,7.51,12.42,14.29l.32.96Zm-151.12-1.46h149.09c-2.17-5.87-5.96-10.06-11.3-12.46-15.39-6.91-38.82,3.07-39.05,3.17l-.7-1.28c9.16-6.17,17.36-17.17,20.77-22.7,1.55-2.53,4.67-11.52.94-18.13-2.83-5.02-8.89-7.56-18.03-7.56-.12,0-.24,0-.36,0-26.5.19-56.02,44.1-56.31,44.55l-1.22-.8c.14-.22,14.33-22.33,9-31.5-1.68-2.89-5.28-4.19-10.68-3.89-24.16,1.39-39.75,43.67-42.15,50.6Z"/>
  </g>
  <g>
    <rect class="cls-3" x="1010.66" y="596.74" width="32.42" height="1.1"/>
    <g>
      <path class="cls-5" d="m1141.37,521.07h-62.19s-60.16-4.68-60.16,63.82c0,0,.33-10.67,16.71-10.67h24.4s54.82,5.35,81.23-53.15Z"/>
      <path class="cls-3" d="m1019.63,584.91l-1.22-.02c0-21.88,6.1-38.63,18.14-49.77,17.72-16.39,42.42-14.68,42.67-14.66h63.08s-.39.86-.39.86c-13.73,30.42-35.24,43.35-50.87,48.84-16.94,5.95-30.83,4.68-30.97,4.67h-24.34c-15.55,0-16.09,9.67-16.11,10.08Zm57.33-63.29c-6.39,0-25.32,1.2-39.59,14.4-11.02,10.2-16.96,25.26-17.67,44.79,1.78-3.23,6.01-7.21,16.03-7.21h24.4c.19.01,13.87,1.25,30.56-4.62,15.24-5.37,36.17-17.93,49.72-47.31h-61.24c-.05,0-.85-.06-2.21-.06Z"/>
    </g>
    <rect class="cls-3" x="1018.47" y="584.89" width="1.1" height="12.73"/>
    <path class="cls-3" d="m1118.3,564.54c-10.15,0-18.4-8.25-18.4-18.4s8.25-18.4,18.4-18.4,18.4,8.25,18.4,18.4-8.25,18.4-18.4,18.4Zm0-35.42c-9.39,0-17.02,7.64-17.02,17.02s7.64,17.02,17.02,17.02,17.02-7.64,17.02-17.02-7.64-17.02-17.02-17.02Z"/>
    <path class="cls-3" d="m1169.63,597.47h-102.66v-102.66h102.66v102.66Zm-101.29-1.38h99.91v-99.91h-99.91v99.91Z"/>
    <polygon class="cls-3" points="1053.8 511.04 1052.43 511.04 1052.43 480.61 1081.86 480.61 1081.86 481.98 1053.8 481.98 1053.8 511.04"/>
    <polygon class="cls-3" points="1184.51 612.35 1155.07 612.35 1155.07 610.97 1183.13 610.97 1183.13 582.91 1184.51 582.91 1184.51 612.35"/>
  </g>
  <path class="cls-3" d="m1229.26,377.24l-1.05-.21c10.84-52.99,15.41-98.2,13.56-134.38-2.51-49.23-16.99-80.08-43.06-91.69-54.16-20.83-100.28,22.28-122.45,43-2.62,2.45-4.89,4.57-6.76,6.19l-.7-.81c1.85-1.61,4.11-3.72,6.73-6.16,22.33-20.87,68.78-64.29,123.59-43.21,26.49,11.8,41.19,42.96,43.72,92.62,1.85,36.27-2.72,81.57-13.58,134.65Z"/>
  <g>
    <path class="cls-12" d="m650.8,181.97c.46-.23.91-.45,1.41-.69-.47-.94-.96-1.84-1.37-2.78-1.16-2.69-2.33-5.39-3.42-8.11-.78-1.96-1.5-3.95-2.12-5.97-.81-2.62-1.55-5.26-2.2-7.92-.44-1.78-.71-3.6-1-5.4-.21-1.33-.41-2.67-.48-4.02-.12-2.29-.28-4.6-.18-6.89.15-3.56.83-7.04,2.24-10.33.8-1.88,1.85-3.63,3.15-5.23,1.73-2.13,3.82-3.82,6.19-5.17,2.95-1.68,6.14-2.71,9.45-3.41,2.43-.51,4.88-.65,7.34-.55,1.85.08,3.69.4,5.48.89,2.12.58,4.17,1.37,6.12,2.38,2,1.04,3.87,2.28,5.66,3.65,1.89,1.45,3.62,3.09,5.2,4.86,1.58,1.78,3.04,3.67,4.44,5.59,2.1,2.9,3.83,6.04,5.33,9.3,1.04,2.26,1.95,4.59,2.85,6.91,1.44,3.71,2.46,7.56,3.37,11.42.52,2.23.89,4.49,1.29,6.75.3,1.68.55,3.38.77,5.07.18,1.37.28,2.76.4,4.13.11,1.29.19,2.58.3,3.87.03.43.09.85.14,1.3h1.48c.07-.59.13-1.18.22-1.77.26-1.8.42-3.63.82-5.4.46-2.07,1.03-4.13,1.73-6.14.99-2.83,2.34-5.5,4.26-7.85.66-.8,1.31-1.62,2.06-2.33,2.38-2.25,5.12-3.92,8.31-4.79,1.55-.42,3.12-.74,4.73-.76,1.07-.01,2.14-.07,3.21.01,1.85.15,3.66.52,5.44,1.04,2.24.66,4.38,1.54,6.44,2.62,2.31,1.22,4.5,2.64,6.57,4.25,2.12,1.64,4.14,3.4,5.93,5.39,1.73,1.91,3.39,3.89,4.95,5.94,1.85,2.43,3.43,5.04,4.87,7.74,1.48,2.76,2.77,5.61,3.89,8.54,1.29,3.36,2.31,6.8,3.15,10.3.13.55.23,1.11.36,1.73h-.62c-51.8,0-103.6,0-155.4,0-.31,0-.55-.01-.74-.36-1.55-2.88-2.84-5.86-3.69-9.01-.43-1.58-.76-3.19-1.03-4.81-.2-1.18-.32-2.38-.29-3.57.08-2.62.55-5.16,1.89-7.48,1.2-2.09,2.89-3.69,4.93-4.93,1.81-1.1,3.73-1.93,5.82-2.32.72-.14,1.45-.2,2.17-.27,1.91-.18,3.74.19,5.53.86,1.5.56,2.86,1.36,4.1,2.34,2.09,1.66,3.86,3.61,5.4,5.8,1.16,1.66,2.11,3.42,2.99,5.23.05.1.1.19.18.33Z"/>
    <path class="cls-3" d="m623.54,200.7c-.31,0-.88,0-1.23-.66-1.72-3.2-2.94-6.18-3.74-9.13-.41-1.52-.76-3.15-1.04-4.86-.23-1.38-.33-2.59-.29-3.68.09-3.12.71-5.58,1.96-7.74,1.2-2.09,2.88-3.76,5.13-5.13,2.03-1.23,4-2.01,6.01-2.39.71-.13,1.43-.2,2.13-.27,1.91-.18,3.81.11,5.87.89,1.49.56,2.93,1.38,4.26,2.43,2.05,1.62,3.85,3.56,5.51,5.92.99,1.42,1.91,3.01,2.96,5.14l.41-.2c-.06-.12-.12-.24-.18-.36-.32-.63-.66-1.28-.94-1.95l-.18-.42c-1.09-2.52-2.21-5.12-3.24-7.71-.85-2.15-1.55-4.11-2.14-6.01-.83-2.7-1.58-5.37-2.21-7.95-.4-1.63-.67-3.31-.93-4.93l-.08-.52c-.21-1.29-.41-2.68-.48-4.08l-.04-.71c-.11-2.04-.23-4.15-.14-6.23.16-3.82.93-7.36,2.28-10.53.83-1.93,1.91-3.74,3.23-5.36,1.72-2.11,3.79-3.85,6.35-5.3,2.71-1.54,5.86-2.68,9.61-3.47,2.33-.49,4.78-.68,7.48-.56,1.79.08,3.67.38,5.6.91,2.18.6,4.28,1.41,6.24,2.43,1.9.98,3.77,2.19,5.74,3.7,1.87,1.43,3.64,3.09,5.28,4.93,1.43,1.61,2.85,3.4,4.47,5.64,1.95,2.69,3.71,5.77,5.38,9.39,1.08,2.36,2.03,4.79,2.86,6.94,1.55,3.99,2.58,8.05,3.39,11.5.45,1.9.79,3.86,1.11,5.75l.18,1.03c.29,1.68.55,3.39.77,5.1.15,1.16.25,2.33.34,3.47l.06.69c.06.75.12,1.51.18,2.26.04.54.08,1.07.12,1.61.02.26.05.52.08.78h.48v-.05c.05-.41.1-.83.16-1.24.08-.52.14-1.04.21-1.57.16-1.27.33-2.59.62-3.88.49-2.21,1.08-4.29,1.75-6.2,1.11-3.16,2.53-5.78,4.35-8.02l.17-.21c.6-.74,1.22-1.5,1.94-2.18,2.6-2.46,5.39-4.07,8.55-4.92,1.92-.52,3.42-.76,4.87-.78l.8-.02c.8-.02,1.64-.04,2.46.03,1.79.15,3.61.49,5.55,1.06,2.22.65,4.43,1.55,6.55,2.66,2.28,1.2,4.51,2.65,6.65,4.3,2.41,1.87,4.37,3.65,6,5.46,1.82,2.01,3.49,4.02,4.98,5.98,1.67,2.19,3.28,4.75,4.92,7.82,1.46,2.73,2.78,5.63,3.92,8.6,1.23,3.22,2.27,6.62,3.17,10.37.09.38.17.76.25,1.17l.26,1.26h-156.71Zm10.02-32.79c-.3,0-.6.01-.9.04-.77.07-1.46.14-2.12.26-1.88.35-3.72,1.09-5.63,2.25-2.08,1.26-3.63,2.81-4.74,4.72-1.15,2-1.73,4.29-1.81,7.21-.03,1.02.06,2.15.28,3.46.28,1.67.62,3.27,1.02,4.75.77,2.86,1.97,5.77,3.65,8.89.06.06.19.06.24.06h155.33c-.07-.36-.14-.7-.22-1.04-.89-3.71-1.91-7.05-3.12-10.23-1.12-2.93-2.42-5.78-3.86-8.47-1.61-3.01-3.19-5.52-4.82-7.66-1.47-1.93-3.12-3.92-4.92-5.9-1.59-1.76-3.5-3.5-5.86-5.32-2.08-1.62-4.26-3.03-6.48-4.19-2.05-1.08-4.18-1.95-6.34-2.58-1.87-.55-3.62-.88-5.33-1.02-.77-.06-1.57-.04-2.35-.03h-.81c-1.35.03-2.77.26-4.59.75-2.97.81-5.61,2.33-8.07,4.66-.66.62-1.26,1.36-1.84,2.07l-.17.21c-1.74,2.13-3.1,4.64-4.16,7.68-.65,1.87-1.23,3.91-1.71,6.07-.27,1.23-.44,2.52-.6,3.77-.07.53-.13,1.06-.21,1.58-.06.4-.1.81-.15,1.21l-.13,1.05h-2.48l-.11-.93c-.04-.3-.07-.6-.09-.89-.04-.54-.08-1.08-.12-1.61-.05-.75-.11-1.5-.17-2.25l-.06-.69c-.09-1.12-.19-2.29-.33-3.42-.22-1.69-.48-3.38-.77-5.04l-.18-1.03c-.32-1.87-.66-3.81-1.1-5.68-.8-3.41-1.82-7.42-3.34-11.35-.83-2.14-1.77-4.55-2.84-6.88-1.64-3.56-3.36-6.57-5.27-9.2-1.6-2.2-3-3.97-4.4-5.55-1.59-1.79-3.31-3.4-5.12-4.79-1.91-1.47-3.74-2.64-5.57-3.59-1.89-.98-3.91-1.77-6.01-2.34-1.85-.5-3.65-.8-5.35-.87-2.61-.11-4.97.07-7.2.54-3.64.77-6.68,1.87-9.29,3.35-2.43,1.38-4.4,3.03-6.03,5.03-1.25,1.54-2.29,3.25-3.07,5.09-1.3,3.04-2.04,6.45-2.19,10.14-.09,2.02.03,4.11.14,6.12l.04.71c.07,1.34.27,2.7.47,3.96l.08.52c.25,1.6.52,3.25.91,4.84.63,2.56,1.37,5.22,2.2,7.89.58,1.87,1.27,3.81,2.11,5.93,1.03,2.58,2.15,5.18,3.23,7.69l.18.42c.27.63.58,1.24.91,1.88.15.29.3.58.44.88l.25.51-2.41,1.18-.32-.58c-.05-.09-.09-.17-.13-.24-1.06-2.16-1.97-3.75-2.95-5.15-1.59-2.27-3.32-4.13-5.28-5.68-1.24-.98-2.57-1.74-3.95-2.26-1.56-.58-3-.87-4.38-.87Z"/>
  </g>
  <path class="cls-3" d="m407.44,269.67h-200.27c-2.14,0-3.88-1.74-3.88-3.88s1.74-3.88,3.88-3.88h200.27c2.14,0,3.88,1.74,3.88,3.88s-1.74,3.88-3.88,3.88Z"/>
  <path class="cls-3" d="m352,286.3h-144.83c-2.14,0-3.88-1.74-3.88-3.88s1.74-3.88,3.88-3.88h144.83c2.14,0,3.88,1.74,3.88,3.88s-1.74,3.88-3.88,3.88Z"/>
  <path class="cls-3" d="m715.08,320.49h-167.01c-2.14,0-3.88-1.74-3.88-3.88s1.74-3.88,3.88-3.88h167.01c2.14,0,3.88,1.74,3.88,3.88s-1.74,3.88-3.88,3.88Z"/>
  <path class="cls-3" d="m604.21,337.12h-56.14c-2.14,0-3.88-1.74-3.88-3.88s1.74-3.88,3.88-3.88h56.14c2.14,0,3.88,1.74,3.88,3.88s-1.74,3.88-3.88,3.88Z"/>
  <path class="cls-3" d="m1056.53,241.93h-167.01c-2.14,0-3.88-1.74-3.88-3.88s1.74-3.88,3.88-3.88h167.01c2.14,0,3.88,1.74,3.88,3.88s-1.74,3.88-3.88,3.88Z"/>
  <path class="cls-3" d="m1001.09,258.56h-111.57c-2.14,0-3.88-1.74-3.88-3.88s1.74-3.88,3.88-3.88h111.57c2.14,0,3.88,1.74,3.88,3.88s-1.74,3.88-3.88,3.88Z"/>
  <path class="cls-3" d="m402.72,361.29h-126.35c-1.22,0-2.22-.99-2.22-2.22s.99-2.22,2.22-2.22h126.35c1.22,0,2.22.99,2.22,2.22s-.99,2.22-2.22,2.22Z"/>
  <path class="cls-3" d="m358.37,372.16h-82c-1.22,0-2.22-.99-2.22-2.22s.99-2.22,2.22-2.22h82c1.22,0,2.22.99,2.22,2.22s-.99,2.22-2.22,2.22Z"/>
  <path class="cls-3" d="m743.92,414.11h-126.35c-1.22,0-2.22-.99-2.22-2.22s.99-2.22,2.22-2.22h126.35c1.22,0,2.22.99,2.22,2.22s-.99,2.22-2.22,2.22Z"/>
  <path class="cls-3" d="m666.31,424.98h-48.74c-1.22,0-2.22-.99-2.22-2.22s.99-2.22,2.22-2.22h48.74c1.22,0,2.22.99,2.22,2.22s-.99,2.22-2.22,2.22Z"/>
  <path class="cls-3" d="m1075.01,333.08h-115.26c-1.22,0-2.22-.99-2.22-2.22s.99-2.22,2.22-2.22h115.26c1.22,0,2.22.99,2.22,2.22s-.99,2.22-2.22,2.22Z"/>
  <path class="cls-3" d="m1041.75,343.95h-82c-1.22,0-2.22-.99-2.22-2.22s.99-2.22,2.22-2.22h82c1.22,0,2.22.99,2.22,2.22s-.99,2.22-2.22,2.22Z"/>
  <g>
    <path class="cls-3" d="m70.95,165.28l-7.98-21.76-23.16.75,16.84-24.96,6.98,2.58,2.13,11.61,11.79.09,5.95,10.18,2.58-.92-15.13,22.42Zm-7.21-22.89l7.51,20.47,12.04-17.83-.27.1-6.09-10.43-12.08-.1-2.18-11.89-5.57-2.06-15.14,22.44,21.79-.71Z"/>
    <path class="cls-3" d="m137.04,165.28l-14.95-22.14,1.8.64,5.95-10.18,11.79-.09,2.12-11.61,7.45-2.75,16.96,25.13-23.16-.75-7.98,21.76Zm-12.47-20.45l12.18,18.04,7.51-20.47,21.79.71-15.26-22.61-6.04,2.23-2.17,11.89-12.08.1-5.92,10.12Z"/>
    <g>
      <g>
        <path class="cls-4" d="m156.66,88.29l1.07-1.88,4.84-8.5-9.1-7.73,1.98-11.77-11.2-4.14-2.14-11.74-11.94-.1-6.03-10.31-11.24,4.01-9.2-7.61-9.19,7.61-11.25-4.01-6.02,10.31-8.27.07-3.66.03-2.15,11.74-11.19,4.14,1.98,11.77-9.1,7.73,5.9,10.38-5.9,10.38,9.1,7.73-1.98,11.77,11.19,4.14,2.15,11.75,11.94.1,6.02,10.3,11.25-4,9.19,7.61,9.2-7.61,11.24,4,6.03-10.3,11.94-.1,2.14-11.75,11.2-4.14-1.98-11.77,9.1-7.73-5.91-10.38Zm-52.96,41.3c-22.77,0-41.29-18.52-41.29-41.29s18.52-41.29,41.29-41.29,41.29,18.52,41.29,41.29-18.52,41.29-41.29,41.29Z"/>
        <path class="cls-3" d="m103.7,148.7l-9.29-7.69-11.37,4.05-6.08-10.41-12.06-.1-2.17-11.87-11.31-4.18,2-11.9-9.2-7.81,5.97-10.49-5.97-10.49,9.2-7.81-2-11.9,11.31-4.18,2.17-11.87,12.06-.1,6.08-10.42,11.37,4.05,9.29-7.7,9.3,7.7,11.36-4.05,6.09,10.42,12.06.1,2.17,11.87,11.32,4.18-2,11.9,9.2,7.81-5.97,10.49,5.97,10.49-9.2,7.81,2,11.9-11.32,4.18-2.17,11.87-12.07.1-6.09,10.41-11.36-4.05-9.3,7.69Zm-9.09-8.81l9.09,7.52,9.1-7.52,11.12,3.96,5.96-10.19,11.81-.09,2.12-11.62,11.08-4.09-1.96-11.65,9-7.64-5.85-10.27,5.85-10.27-9-7.65,1.96-11.65-11.08-4.09-2.12-11.62-11.81-.09-5.96-10.2-11.12,3.97-9.1-7.53-9.09,7.53-11.13-3.97-5.96,10.2-11.81.09-2.13,11.62-11.08,4.09,1.96,11.65-9,7.65,5.84,10.27-5.84,10.27,9,7.64-1.96,11.65,11.08,4.09,2.13,11.62,11.81.09,5.96,10.19,11.13-3.96Zm9.1-9.81c-23.04,0-41.79-18.75-41.79-41.79s18.75-41.79,41.79-41.79,41.79,18.75,41.79,41.79-18.75,41.79-41.79,41.79Zm0-82.59c-22.5,0-40.8,18.3-40.8,40.8s18.3,40.8,40.8,40.8,40.8-18.3,40.8-40.8-18.3-40.8-40.8-40.8Z"/>
      </g>
      <path class="cls-3" d="m98.29,109l-15.79-15.53,7.38-7.38,8.07,8.07,19.39-21.47,7.75,7-26.79,29.32Z"/>
    </g>
  </g>
  <g>
    <path class="cls-12" d="m249.82,354.23c0-.16-.02-.29-.02-.41,0-.97,0-1.95,0-2.92-.03-1.89-1.26-3.11-3.14-3.11-11.1,0-22.21,0-33.31,0-1.85,0-3.11,1.25-3.11,3.1,0,7.71,0,15.42,0,23.13,0,1.33.62,2.28,1.83,2.85.13.06.26.22.28.36.24,1.59,1.19,2.5,2.77,2.67,2.64.28,5.29.58,7.93.88,4.45.5,8.89,1.01,13.34,1.51,4.04.46,8.07.9,12.11,1.37,1.61.19,3.38-.74,3.55-2.86.28-3.41.62-6.81.94-10.21.4-4.24.77-8.49,1.2-12.73.18-1.75-1.13-3.28-2.61-3.4-.58-.04-1.16-.15-1.75-.22Z"/>
    <path class="cls-3" d="m249.82,354.23c.59.08,1.17.18,1.75.22,1.49.11,2.79,1.64,2.61,3.4-.42,4.24-.8,8.48-1.2,12.73-.32,3.4-.67,6.8-.94,10.21-.17,2.12-1.93,3.05-3.55,2.86-4.03-.46-8.07-.91-12.11-1.37-4.45-.5-8.89-1.01-13.34-1.51-2.64-.3-5.29-.6-7.93-.88-1.58-.17-2.53-1.08-2.77-2.67-.02-.13-.16-.3-.28-.36-1.21-.57-1.83-1.52-1.83-2.85,0-7.71,0-15.42,0-23.13,0-1.85,1.25-3.09,3.11-3.1,11.1,0,22.21,0,33.31,0,1.88,0,3.11,1.23,3.14,3.11.01.97,0,1.95,0,2.92,0,.13.01.25.02.41Zm-38.12,4.56v.46c0,4.86,0,9.72,0,14.59,0,1.24.54,1.77,1.78,1.77,11.01,0,22.03,0,33.04,0,1.27,0,1.8-.52,1.8-1.79,0-4.85,0-9.7,0-14.54v-.48h-36.63Zm2.17,18.28c.12.81.56,1.24,1.37,1.34,1.09.13,2.19.24,3.28.37,2.9.33,5.8.65,8.7.98,2.93.33,5.85.66,8.78.99,2.94.33,5.88.66,8.82,1,1.34.15,2.67.31,4.01.45.92.09,1.59-.46,1.69-1.37.07-.67.13-1.34.19-2.01.28-2.93.55-5.86.83-8.8.24-2.6.49-5.21.73-7.81.15-1.62.31-3.24.45-4.87.07-.75-.41-1.44-1.08-1.54-.59-.09-1.19-.11-1.85-.17,0,.22,0,.4,0,.58,0,5.86,0,11.73-.01,17.59,0,.54-.09,1.13-.32,1.61-.56,1.2-1.59,1.66-2.9,1.66-10.7,0-21.4,0-32.11,0-.19,0-.37,0-.59,0Zm-2.15-19.79h36.57v-4.33h-36.57v4.33Zm36.56-5.85c.22-1.42-.47-2.2-1.86-2.2-10.99.03-21.98.02-32.96.02-1.33,0-1.99.84-1.7,2.18h36.52Z"/>
    <path class="cls-11" d="m211.7,358.79h36.63v.48c0,4.85,0,9.7,0,14.54,0,1.27-.53,1.79-1.8,1.79-11.01,0-22.03,0-33.04,0-1.24,0-1.78-.53-1.78-1.77,0-4.86,0-9.72,0-14.59v-.46Zm27.81,13.89c1.89,0,3.78,0,5.66,0,.72,0,.95-.23.95-.95,0-2.04,0-4.09,0-6.13,0-.74-.23-.98-.97-.98-3.75,0-7.49,0-11.24,0-.74,0-.98.24-.98.98,0,2.03,0,4.06,0,6.09,0,.78.22.99,1,.99,1.86,0,3.72,0,5.58,0Zm-20.87-6.59c1.49,0,2.98,0,4.46,0,.16,0,.32,0,.47-.02.36-.07.54-.31.56-.66.02-.35-.13-.62-.48-.72-.15-.04-.31-.06-.46-.06-3.03,0-6.07,0-9.1,0-.13,0-.26.01-.38.04-.41.1-.63.47-.52.89.12.45.45.54.86.54,1.53,0,3.06,0,4.59,0Zm-1.86-2.93c.97,0,1.94,0,2.91,0,.46,0,.71-.21.76-.59.08-.54-.22-.87-.83-.87-1.86,0-3.71,0-5.57,0-.59,0-.9.28-.89.75.01.46.31.71.88.71.91,0,1.83,0,2.74,0Zm8.81,0c.94,0,1.88,0,2.83,0,.55,0,.86-.28.86-.74,0-.44-.31-.72-.84-.72-1.88,0-3.77,0-5.65,0-.54,0-.82.27-.82.72,0,.47.28.73.84.74.93,0,1.86,0,2.78,0Zm1.85,2.92s0,0,0,0c.34,0,.69,0,1.03,0,.03,0,.06,0,.09,0,.44-.03.7-.28.72-.69.02-.38-.22-.72-.62-.73-.8-.04-1.6-.04-2.39,0-.41.02-.65.34-.64.72,0,.41.27.68.71.7.37.02.74,0,1.11,0Z"/>
    <path class="cls-4" d="m213.87,377.07c.22,0,.4,0,.59,0,10.7,0,21.4,0,32.11,0,1.31,0,2.34-.46,2.9-1.66.23-.48.32-1.07.32-1.61.02-5.86.01-11.73.01-17.59,0-.18,0-.36,0-.58.66.06,1.26.08,1.85.17.67.1,1.14.78,1.08,1.54-.14,1.62-.3,3.25-.45,4.87-.24,2.6-.49,5.21-.73,7.81-.27,2.93-.55,5.86-.83,8.8-.06.67-.12,1.34-.19,2.01-.1.91-.77,1.46-1.69,1.37-1.34-.14-2.67-.3-4.01-.45-2.94-.33-5.88-.66-8.82-1-2.93-.33-5.85-.66-8.78-.99-2.9-.33-5.8-.65-8.7-.98-1.09-.12-2.19-.23-3.28-.37-.81-.1-1.25-.53-1.37-1.34Z"/>
    <path class="cls-4" d="m211.72,357.27v-4.33h36.57v4.33h-36.57Z"/>
    <path class="cls-11" d="m248.28,351.43h-36.52c-.29-1.34.37-2.18,1.7-2.18,10.99,0,21.98.01,32.96-.02,1.39,0,2.08.78,1.86,2.2Z"/>
    <path class="cls-3" d="m239.51,372.68c-1.86,0-3.72,0-5.58,0-.78,0-1-.22-1-.99,0-2.03,0-4.06,0-6.09,0-.74.24-.98.98-.98,3.75,0,7.49,0,11.24,0,.74,0,.97.23.97.98,0,2.04,0,4.09,0,6.13,0,.72-.23.95-.95.95-1.89,0-3.78,0-5.66,0Zm-5.07-6.57v5.08h10.19v-5.08h-10.19Z"/>
    <path class="cls-3" d="m218.65,366.09c-1.53,0-3.06,0-4.59,0-.41,0-.74-.09-.86-.54-.11-.41.11-.78.52-.89.12-.03.25-.04.38-.04,3.03,0,6.07,0,9.1,0,.16,0,.32.02.46.06.35.1.5.37.48.72-.02.35-.2.59-.56.66-.15.03-.31.02-.47.02-1.49,0-2.98,0-4.46,0Z"/>
    <path class="cls-3" d="m216.79,363.16c-.91,0-1.83,0-2.74,0-.57,0-.87-.25-.88-.71-.01-.47.31-.75.89-.75,1.86,0,3.71,0,5.57,0,.62,0,.91.32.83.87-.05.38-.31.59-.76.59-.97,0-1.94,0-2.91,0Z"/>
    <path class="cls-3" d="m225.59,363.16c-.93,0-1.86,0-2.78,0-.56,0-.85-.26-.84-.74,0-.46.29-.72.82-.72,1.88,0,3.77,0,5.65,0,.52,0,.83.28.84.72,0,.46-.31.73-.86.74-.94,0-1.88,0-2.83,0Z"/>
    <path class="cls-3" d="m227.44,366.08c-.37,0-.74.01-1.11,0-.44-.02-.7-.29-.71-.7,0-.38.23-.71.64-.72.8-.03,1.6-.03,2.39,0,.4.02.64.35.62.73-.02.41-.28.66-.72.69-.03,0-.06,0-.09,0-.34,0-.69,0-1.03,0,0,0,0,0,0,0Z"/>
    <path class="cls-4" d="m234.45,366.11h10.19v5.08h-10.19v-5.08Z"/>
  </g>
  <g>
    <path class="cls-1" d="m576.48,393.07h-.08c-.6,12.46-10.58,22.45-23.04,23.06v.07c12.47.61,22.47,10.63,23.04,23.11h.08c.58-12.78,11.05-22.98,23.94-23.13v-.03c-12.87-.16-23.33-10.33-23.94-23.08Z"/>
    <path class="cls-3" d="m576.84,439.68h-.72l-.1-.36c-.57-12.37-10.32-22.15-22.68-22.75l-.36-.02v-.71l.36-.09c12.34-.6,22.09-10.36,22.68-22.7l.02-.36h.71l.1.36c.6,12.59,10.95,22.57,23.57,22.72h.37v.75l-.37.03c-12.64.16-22.99,10.16-23.57,22.78l-.02.36Zm-20.39-23.52c10.25,1.78,18.24,9.78,19.99,20.04,1.77-10.24,9.86-18.27,20.04-20.04-10.18-1.77-18.27-9.81-20.04-20.04-1.75,10.25-9.74,18.26-19.99,20.04Z"/>
  </g>
  <g>
    <path class="cls-2" d="m599.48,385.88h-.03c-.21,4.46-3.79,8.04-8.25,8.26v.03c4.47.22,8.04,3.81,8.25,8.27h.03c.21-4.58,3.96-8.23,8.57-8.28h0c-4.61-.07-8.35-3.71-8.57-8.27Z"/>
    <path class="cls-3" d="m599.84,402.81h-.72l-.04-.36c-.2-4.3-3.59-7.71-7.89-7.92l-.36-.02v-.71l.36-.04c4.29-.21,7.69-3.61,7.89-7.9l.02-.36h.71l.05.36c.21,4.38,3.81,7.85,8.2,7.91h.37v.75h-.37c-4.4.07-8,3.55-8.2,7.94l-.02.36Zm-6.47-8.66c2.94.87,5.24,3.17,6.1,6.11.87-2.94,3.19-5.25,6.12-6.11-2.93-.87-5.25-3.17-6.12-6.11-.86,2.94-3.16,5.25-6.1,6.11Z"/>
  </g>
  <g>
    <g>
      <path class="cls-5" d="m914.02,318.88l-.66-.38-3-1.7-2.72,3.21-4.15-.69-1.45,3.95-4.14.76-.03,4.21-3.63,2.13,1.42,3.96-2.68,3.24,2.69,3.24-1.41,3.97,3.63,2.12.03,2.91v1.29s4.15.75,4.15.75l1.46,3.94,4.15-.7,2.73,3.2,3.65-2.08,3.66,2.08,2.72-3.21,4.15.69,1.45-3.95,4.14-.76.03-4.21,3.63-2.13-1.42-3.96,2.68-3.24-2.68-3.24,1.41-3.96-3.63-2.12-.04-4.21-4.14-.75-1.46-3.94-4.15.7-2.73-3.2-3.65,2.09Z"/>
      <path class="cls-3" d="m910.31,358.84l-2.8-3.29-4.26.72-1.5-4.05-4.25-.77-.04-4.32-3.73-2.17,1.45-4.07-2.76-3.32,2.75-3.33-1.46-4.07,3.73-2.19.03-4.32,4.25-.78,1.49-4.05,4.26.71,2.79-3.3,3.76,2.13,3.75-2.14,2.8,3.29,4.26-.72,1.5,4.05,4.25.77.04,4.32,3.73,2.18-1.44,4.07,2.76,3.32-2.75,3.33,1.45,4.07-3.73,2.18-.03,4.32-4.25.78-1.49,4.05-4.26-.71-2.79,3.3-3.76-2.13-3.75,2.14Zm-2.46-4.24l2.65,3.12,3.55-2.03,3.56,2.02,2.64-3.12,4.04.67,1.41-3.84,4.03-.74.03-4.09,3.53-2.07-1.38-3.85,2.6-3.15-2.61-3.15,1.37-3.85-3.53-2.06-.04-4.09-4.03-.73-1.42-3.84-4.04.68-2.65-3.11-3.55,2.03-3.56-2.02-2.64,3.12-4.04-.67-1.41,3.84-4.02.74-.03,4.09-3.53,2.07,1.38,3.85-2.61,3.16,2.61,3.15-1.37,3.86,3.54,2.06.04,4.09,4.03.73,1.42,3.83,4.03-.68Z"/>
    </g>
    <g>
      <polygon class="cls-15" points="924.59 355.76 920.44 355.06 917.72 358.27 914.06 356.2 910.41 358.28 907.68 355.08 903.54 355.78 903.54 372.28 914.17 365.6 924.59 372.28 924.59 355.76"/>
      <path class="cls-3" d="m925.15,373.31l-10.98-7.04-11.2,7.03v-17.99l4.93-.84,2.63,3.09,3.53-2.01,3.53,2,2.62-3.1,4.93.82v18.03Zm-21.05-17.05v15l10.08-6.33,9.85,6.32v-15.02l-3.36-.56-2.81,3.32-3.79-2.15-3.78,2.16-2.82-3.31-3.36.57Z"/>
    </g>
    <g>
      <path class="cls-15" d="m928.49,337.47c0,7.95-6.45,14.43-14.4,14.44-7.95,0-14.43-6.45-14.44-14.4,0-7.95,6.45-14.43,14.4-14.44,7.95,0,14.43,6.45,14.44,14.4Z"/>
      <path class="cls-3" d="m914.07,352.35c-3.96,0-7.68-1.54-10.49-4.34-2.81-2.81-4.37-6.53-4.37-10.5,0-3.96,1.54-7.69,4.34-10.51,2.81-2.81,6.53-4.37,10.5-4.37h.02c3.96,0,7.68,1.54,10.49,4.34,2.81,2.81,4.37,6.53,4.37,10.5,0,3.96-1.54,7.69-4.34,10.51-2.81,2.81-6.53,4.37-10.5,4.37h-.02Zm0-28.84h-.02c-7.71,0-13.97,6.29-13.96,14,0,7.7,6.28,13.96,13.98,13.96h.02c7.71,0,13.97-6.29,13.96-14,0-7.7-6.28-13.96-13.98-13.96Z"/>
    </g>
    <g>
      <polygon class="cls-5" points="914.1 330.81 916.33 334.72 920.73 335.64 917.7 338.96 918.2 343.44 914.1 341.59 909.99 343.44 910.49 338.96 907.46 335.64 911.87 334.72 914.1 330.81"/>
      <path class="cls-3" d="m918.72,344.15l-4.62-2.09-4.62,2.09.56-5.04-3.42-3.75,4.97-1.03,2.51-4.41,2.51,4.41,4.97,1.03-3.42,3.75.56,5.04Zm-10.42-8.25l2.65,2.91-.43,3.91,3.58-1.62,3.58,1.62-.43-3.91,2.65-2.91-3.85-.8-1.95-3.41-1.95,3.41-3.85.8Z"/>
    </g>
  </g>
</svg>