<svg width="517" height="290" viewBox="0 0 517 290" fill="none" xmlns="http://www.w3.org/2000/svg">
<g clip-path="url(#clip0_9943_6010)">
<rect width="516" height="290" transform="translate(0.5)" fill="#E6F7FE"/>
<path d="M-119 166.045L204.136 352.608" stroke="#303030" stroke-width="2" stroke-dasharray="6 6"/>
<path d="M-46.8164 124.371L276.32 310.934" stroke="#303030" stroke-width="2" stroke-dasharray="6 6"/>
<path d="M25.3633 82.6973L348.499 269.26" stroke="#303030" stroke-width="2" stroke-dasharray="6 6"/>
<path d="M97.5469 41.0234L420.683 227.586" stroke="#303030" stroke-width="2" stroke-dasharray="6 6"/>
<path d="M378.719 -46.6846L-54.3676 203.358" stroke="#303030" stroke-width="2" stroke-dasharray="6 6"/>
<path d="M314.094 -83.998L-118.993 166.044" stroke="#303030" stroke-width="2" stroke-dasharray="6 6"/>
<path d="M443.344 -9.37207L10.2574 240.67" stroke="#303030" stroke-width="2" stroke-dasharray="6 6"/>
<path d="M507.969 27.9404L74.8824 277.983" stroke="#303030" stroke-width="2" stroke-dasharray="6 6"/>
<path d="M572.598 65.252L139.511 315.294" stroke="#303030" stroke-width="2" stroke-dasharray="6 6"/>
<path d="M637.227 102.565L204.14 352.608" stroke="#303030" stroke-width="2" stroke-dasharray="6 6"/>
<path d="M241.906 -42.3232L565.042 144.239" stroke="#303030" stroke-width="2" stroke-dasharray="6 6"/>
<path d="M314.094 -83.998L637.23 102.565" stroke="#303030" stroke-width="2" stroke-dasharray="6 6"/>
<path d="M169.723 -0.649414L492.859 185.913" stroke="#303030" stroke-width="2" stroke-dasharray="6 6"/>
<path d="M423.505 152.343L490.004 113.994L423.505 75.3076L357.007 113.657L423.505 152.343Z" fill="#87D9FD" stroke="#151515" stroke-width="2" stroke-linejoin="round"/>
<path d="M423.505 72.0352L490.004 33.6861L423.505 -5L357.007 33.3491L423.505 72.0352Z" fill="#59B5F8" stroke="#151515" stroke-width="2" stroke-linecap="round" stroke-linejoin="round"/>
<path d="M423.5 72.0367L357.002 33.3506L357.002 113.659L423.5 152.345L423.5 72.0367Z" fill="#87D9FD" stroke="#151515" stroke-width="2" stroke-linejoin="round"/>
<path d="M423.505 72.0347L490.004 33.6855L490.004 113.994L423.505 152.343L423.505 72.0347Z" fill="#151515" stroke="#151515" stroke-width="2" stroke-linejoin="round"/>
<path d="M88.5055 202.343L155.004 163.994L88.5055 125.308L22.0071 163.657L88.5055 202.343Z" fill="#3BBB96" stroke="#151515" stroke-width="2" stroke-linejoin="round"/>
<path d="M88.5055 122.035L155.004 83.6861L88.5055 45L22.0071 83.3491L88.5055 122.035Z" fill="#75DCC0" stroke="#151515" stroke-width="2" stroke-linecap="round" stroke-linejoin="round"/>
<path d="M88.5 122.037L22.0016 83.3506L22.0016 163.659L88.5 202.345L88.5 122.037Z" fill="#3BBB96" stroke="#151515" stroke-width="2" stroke-linejoin="round"/>
<path d="M88.5055 122.035L155.004 83.6855L155.004 163.994L88.5055 202.343L88.5055 122.035Z" fill="#151515" stroke="#151515" stroke-width="2" stroke-linejoin="round"/>
<path d="M108.945 71.6055C99.8951 66.3809 88.9154 65.5851 79.6879 70.5519L87.989 75.3441C92.5404 72.9327 97.8429 73.1145 102.087 75.5646C105.894 77.7626 106.084 80.7516 102.78 82.6592C99.538 84.5308 95.9825 84.7097 89.3688 83.2672L82.3809 81.8245L73.8395 86.7554L81.5789 91.2234L86.5665 88.344L87.5025 88.5964C96.5497 90.796 103.786 91.4465 111.206 87.1634C118.251 83.0962 117.558 76.5778 108.945 71.6055ZM59 94.0972L68.5494 99.6101L77.1531 94.6431L67.6037 89.1303L59 94.0972Z" fill="#151515" stroke="#151515" stroke-width="2" stroke-linecap="round" stroke-linejoin="round"/>
<path d="M108.945 64.3799C99.8954 59.1553 88.9158 58.3596 79.6882 63.3263L87.9893 68.1185C92.5408 65.7071 97.8432 65.8889 102.087 68.339C105.895 70.537 106.085 73.526 102.78 75.4336C99.5383 77.3052 95.9828 77.4842 89.3692 76.0416L82.3812 74.5989L73.8398 79.5299L81.5792 83.9978L86.5669 81.1184L87.5028 81.3708C96.55 83.5704 103.787 84.2209 111.206 79.9378C118.251 75.8707 117.559 69.3523 108.945 64.3799Z" fill="#3BBB96" stroke="#151515" stroke-width="2" stroke-linecap="round" stroke-linejoin="round"/>
<path d="M79.6879 63.3262L87.989 68.1184C92.5404 65.707 97.8429 65.8888 102.087 68.3389C105.894 70.5368 106.084 73.5259 102.78 75.4335C102.623 75.5244 102.464 75.6112 102.305 75.6941C102.234 75.6507 102.161 75.6076 102.087 75.5648C97.8429 73.1147 92.5404 72.933 87.989 75.3443L79.6879 70.5521V63.3262Z" fill="#151515"/>
<path d="M73.8395 79.5297L81.5789 83.9977L86.5665 81.1183L87.5025 81.3707C96.5497 83.5702 103.786 84.2207 111.206 79.9377C112.823 79.0036 114.033 77.9403 114.833 76.7961C115.599 75.6999 115.988 74.5294 115.999 73.3272V73.2242C115.999 73.2586 115.999 73.2929 115.999 73.3272V80.4504C116.021 82.9452 114.418 85.3092 111.206 87.1636C103.786 91.4467 96.5497 90.7962 87.5025 88.5966L86.5665 88.3442L81.5789 91.2236L77.1531 88.6686V94.6433L68.5494 99.6103L59 94.0974L59 86.8715L68.5494 92.3843L76.0695 88.043L73.8395 86.7557L73.8395 79.5297Z" fill="#151515"/>
<path d="M87.989 68.1184L79.6879 63.3262V70.5521L87.989 75.3443M87.989 68.1184C92.5404 65.707 97.8429 65.8888 102.087 68.3389C105.894 70.5368 106.084 73.5259 102.78 75.4335C102.623 75.5244 102.464 75.6112 102.305 75.6941C102.234 75.6507 102.161 75.6076 102.087 75.5648C97.8429 73.1147 92.5404 72.933 87.989 75.3443M87.989 68.1184V75.3443M82.3809 74.5988L73.8395 79.5297M73.8395 79.5297L81.5789 83.9977M73.8395 79.5297L73.8395 86.7557L76.0695 88.043M81.5789 83.9977L86.5665 81.1183M81.5789 83.9977L81.5789 91.2236M86.5665 81.1183L87.5025 81.3707M86.5665 81.1183L86.5665 88.3442M87.5025 81.3707C96.5497 83.5702 103.786 84.2207 111.206 79.9377M87.5025 81.3707V88.5966M111.206 79.9377V87.1636M111.206 79.9377C112.823 79.0036 114.033 77.9403 114.833 76.7961M68.5494 92.3843L59 86.8715L59 94.0974L68.5494 99.6103M68.5494 92.3843L76.0695 88.043M68.5494 92.3843L68.5494 99.6103M76.0695 88.043L77.1531 87.4174V88.6686M76.0695 88.043L77.1531 88.6686M77.1531 88.6686L81.5789 91.2236M77.1531 88.6686V94.6433L68.5494 99.6103M81.5789 91.2236L86.5665 88.3442M86.5665 88.3442L87.5025 88.5966M87.5025 88.5966C96.5497 90.7962 103.786 91.4467 111.206 87.1636M111.206 87.1636C114.418 85.3092 116.021 82.9452 115.999 80.4504M115.999 80.4504V73.3272M115.999 80.4504C115.988 79.2485 115.6 78.0163 114.833 76.7961M115.999 73.3272V73.2242C115.999 73.2586 115.999 73.2929 115.999 73.3272ZM115.999 73.3272C115.988 74.5294 115.599 75.6999 114.833 76.7961" stroke="#151515" stroke-width="2" stroke-linecap="round" stroke-linejoin="round"/>
<path d="M68.5494 92.3843L59 86.8715L59 94.0974L68.5494 99.6103L68.5494 92.3843Z" fill="#75DCC0"/>
<path d="M81.579 83.9977L73.8396 79.5297L73.8396 86.7556L81.579 91.2236L81.579 83.9977Z" fill="#75DCC0"/>
<path d="M87.5026 81.3707L86.5666 81.1183V88.3442L87.5026 88.5966C96.5498 90.7962 103.786 91.4467 111.206 87.1636L111.206 79.9377C103.786 84.2207 96.5498 83.5702 87.5026 81.3707Z" fill="#75DCC0"/>
<path d="M87.989 68.1184L79.6879 63.3262V70.5521L87.989 75.3443V68.1184Z" fill="#75DCC0"/>
<path d="M68.5494 92.3843L59 86.8715L59 94.0974L68.5494 99.6103L68.5494 92.3843Z" stroke="#151515" stroke-width="2" stroke-linecap="round" stroke-linejoin="round"/>
<path d="M81.579 83.9977L73.8396 79.5297L73.8396 86.7556L81.579 91.2236L81.579 83.9977Z" stroke="#151515" stroke-width="2" stroke-linecap="round" stroke-linejoin="round"/>
<path d="M87.5026 81.3707L86.5666 81.1183V88.3442L87.5026 88.5966C96.5498 90.7962 103.786 91.4467 111.206 87.1636L111.206 79.9377C103.786 84.2207 96.5498 83.5702 87.5026 81.3707Z" stroke="#151515" stroke-width="2" stroke-linecap="round" stroke-linejoin="round"/>
<path d="M87.989 68.1184L79.6879 63.3262V70.5521L87.989 75.3443V68.1184Z" stroke="#151515" stroke-width="2" stroke-linecap="round" stroke-linejoin="round"/>
<path d="M68.5494 92.3851L59 86.8722L67.6037 81.9053L77.1531 87.4181L68.5494 92.3851Z" fill="#3BBB96" stroke="#151515" stroke-width="2" stroke-linecap="round" stroke-linejoin="round"/>
<path d="M77.1545 87.418L68.5508 92.3849L68.5508 99.6108L77.1545 94.6439V87.418Z" fill="#151515" stroke="#151515" stroke-width="2" stroke-linecap="round" stroke-linejoin="round"/>
<path d="M446.945 22.6055C437.895 17.3809 426.915 16.5851 417.688 21.5519L425.989 26.3441C430.54 23.9327 435.843 24.1145 440.087 26.5646C443.894 28.7626 444.084 31.7516 440.78 33.6592C437.538 35.5308 433.982 35.7097 427.369 34.2672L420.381 32.8245L411.839 37.7554L419.579 42.2234L424.567 39.344L425.502 39.5964C434.55 41.796 441.786 42.4465 449.206 38.1634C456.251 34.0962 455.558 27.5778 446.945 22.6055ZM397 45.0972L406.549 50.6101L415.153 45.6431L405.604 40.1303L397 45.0972Z" fill="#151515" stroke="#151515" stroke-width="2" stroke-linecap="round" stroke-linejoin="round"/>
<path d="M446.945 15.3799C437.895 10.1553 426.916 9.35955 417.688 14.3263L425.989 19.1185C430.541 16.7071 435.843 16.8889 440.087 19.339C443.895 21.537 444.085 24.526 440.78 26.4336C437.538 28.3052 433.983 28.4842 427.369 27.0416L420.381 25.5989L411.84 30.5299L419.579 34.9978L424.567 32.1184L425.503 32.3708C434.55 34.5704 441.787 35.2209 449.206 30.9378C456.251 26.8707 455.559 20.3523 446.945 15.3799Z" fill="#59B5F8" stroke="#151515" stroke-width="2" stroke-linecap="round" stroke-linejoin="round"/>
<path d="M417.688 14.3262L425.989 19.1184C430.54 16.707 435.843 16.8888 440.087 19.3389C443.894 21.5368 444.084 24.5259 440.78 26.4335C440.623 26.5244 440.464 26.6112 440.305 26.6941C440.234 26.6507 440.161 26.6076 440.087 26.5648C435.843 24.1147 430.54 23.933 425.989 26.3443L417.688 21.5521V14.3262Z" fill="#151515"/>
<path d="M411.839 30.5297L419.579 34.9977L424.567 32.1183L425.502 32.3707C434.55 34.5702 441.786 35.2207 449.206 30.9377C450.823 30.0036 452.033 28.9403 452.833 27.7961C453.599 26.6999 453.988 25.5294 453.999 24.3272V24.2242C453.999 24.2586 453.999 24.2929 453.999 24.3272V31.4504C454.021 33.9452 452.418 36.3092 449.206 38.1636C441.786 42.4467 434.55 41.7962 425.502 39.5966L424.567 39.3442L419.579 42.2236L415.153 39.6686V45.6433L406.549 50.6103L397 45.0974L397 37.8715L406.549 43.3843L414.069 39.043L411.839 37.7557L411.839 30.5297Z" fill="#151515"/>
<path d="M425.989 19.1184L417.688 14.3262V21.5521L425.989 26.3443M425.989 19.1184C430.54 16.707 435.843 16.8888 440.087 19.3389C443.894 21.5368 444.084 24.5259 440.78 26.4335C440.623 26.5244 440.464 26.6112 440.305 26.6941C440.234 26.6507 440.161 26.6076 440.087 26.5648C435.843 24.1147 430.54 23.933 425.989 26.3443M425.989 19.1184V26.3443M420.381 25.5988L411.839 30.5297M411.839 30.5297L419.579 34.9977M411.839 30.5297L411.839 37.7557L414.069 39.043M419.579 34.9977L424.567 32.1183M419.579 34.9977L419.579 42.2236M424.567 32.1183L425.502 32.3707M424.567 32.1183L424.567 39.3442M425.502 32.3707C434.55 34.5702 441.786 35.2207 449.206 30.9377M425.502 32.3707V39.5966M449.206 30.9377V38.1636M449.206 30.9377C450.823 30.0036 452.033 28.9403 452.833 27.7961M406.549 43.3843L397 37.8715L397 45.0974L406.549 50.6103M406.549 43.3843L414.069 39.043M406.549 43.3843L406.549 50.6103M414.069 39.043L415.153 38.4174V39.6686M414.069 39.043L415.153 39.6686M415.153 39.6686L419.579 42.2236M415.153 39.6686V45.6433L406.549 50.6103M419.579 42.2236L424.567 39.3442M424.567 39.3442L425.502 39.5966M425.502 39.5966C434.55 41.7962 441.786 42.4467 449.206 38.1636M449.206 38.1636C452.418 36.3092 454.021 33.9452 453.999 31.4504M453.999 31.4504V24.3272M453.999 31.4504C453.988 30.2485 453.6 29.0163 452.833 27.7961M453.999 24.3272V24.2242C453.999 24.2586 453.999 24.2929 453.999 24.3272ZM453.999 24.3272C453.988 25.5294 453.599 26.6999 452.833 27.7961" stroke="#151515" stroke-width="2" stroke-linecap="round" stroke-linejoin="round"/>
<path d="M406.549 43.3843L397 37.8715L397 45.0974L406.549 50.6103L406.549 43.3843Z" fill="#87D9FD"/>
<path d="M419.579 34.9977L411.84 30.5297L411.84 37.7556L419.579 42.2236L419.579 34.9977Z" fill="#87D9FD"/>
<path d="M425.503 32.3707L424.567 32.1183V39.3442L425.503 39.5966C434.55 41.7962 441.786 42.4467 449.206 38.1636L449.206 30.9377C441.786 35.2207 434.55 34.5702 425.503 32.3707Z" fill="#87D9FD"/>
<path d="M425.989 19.1184L417.688 14.3262V21.5521L425.989 26.3443V19.1184Z" fill="#87D9FD"/>
<path d="M406.549 43.3843L397 37.8715L397 45.0974L406.549 50.6103L406.549 43.3843Z" stroke="#151515" stroke-width="2" stroke-linecap="round" stroke-linejoin="round"/>
<path d="M419.579 34.9977L411.84 30.5297L411.84 37.7556L419.579 42.2236L419.579 34.9977Z" stroke="#151515" stroke-width="2" stroke-linecap="round" stroke-linejoin="round"/>
<path d="M425.503 32.3707L424.567 32.1183V39.3442L425.503 39.5966C434.55 41.7962 441.786 42.4467 449.206 38.1636L449.206 30.9377C441.786 35.2207 434.55 34.5702 425.503 32.3707Z" stroke="#151515" stroke-width="2" stroke-linecap="round" stroke-linejoin="round"/>
<path d="M425.989 19.1184L417.688 14.3262V21.5521L425.989 26.3443V19.1184Z" stroke="#151515" stroke-width="2" stroke-linecap="round" stroke-linejoin="round"/>
<path d="M406.549 43.3851L397 37.8722L405.604 32.9053L415.153 38.4181L406.549 43.3851Z" fill="#59B5F8" stroke="#151515" stroke-width="2" stroke-linecap="round" stroke-linejoin="round"/>
<path d="M415.155 38.418L406.551 43.3849L406.551 50.6108L415.155 45.6439V38.418Z" fill="#151515" stroke="#151515" stroke-width="2" stroke-linecap="round" stroke-linejoin="round"/>
</g>
<defs>
<clipPath id="clip0_9943_6010">
<rect width="516" height="290" fill="white" transform="translate(0.5)"/>
</clipPath>
</defs>
</svg>
