<svg xmlns="http://www.w3.org/2000/svg" version="1.1" xmlns:xlink="http://www.w3.org/1999/xlink" xmlns:svgjs="http://svgjs.dev/svgjs" width="2000" height="146" viewBox="0 0 2000 146"><g transform="matrix(1,0,0,1,-1.2121212121212466,0.6326561682737832)"><svg viewBox="0 0 396 29" data-background-color="#ffffff" preserveAspectRatio="xMidYMid meet" height="146" width="2000" xmlns="http://www.w3.org/2000/svg" xmlns:xlink="http://www.w3.org/1999/xlink"><g id="tight-bounds" transform="matrix(1,0,0,1,0.2400000000000091,-0.12566458136944902)"><svg viewBox="0 0 395.52 29.25132916273888" height="29.25132916273888" width="395.52"><g><svg viewBox="0 0 395.52 29.25132916273888" height="29.25132916273888" width="395.52"><g><svg viewBox="0 0 395.52 29.25132916273888" height="29.25132916273888" width="395.52"><g id="textblocktransform"><svg viewBox="0 0 395.52 29.25132916273888" height="29.25132916273888" width="395.52" id="textblock"><g><svg viewBox="0 0 395.52 29.25132916273888" height="29.25132916273888" width="395.52"><g transform="matrix(1,0,0,1,0,0)"><svg width="395.52" viewBox="4 -35.7 583.4 43.150000000000006" height="29.25132916273888" data-palette-color="#152232"><path d="M34.1-4.3L34.4-4.3 34.1-1.25Q32.7-0.65 30.7-0.2 28.7 0.25 26.65 0.48 24.6 0.7 23 0.7L23 0.7Q18.95 0.7 15.5-0.68 12.05-2.05 9.47-4.5 6.9-6.95 5.45-10.28 4-13.6 4-17.5L4-17.5Q4-21.4 5.45-24.73 6.9-28.05 9.47-30.5 12.05-32.95 15.5-34.33 18.95-35.7 23-35.7L23-35.7Q24.65-35.7 26.7-35.45 28.75-35.2 30.7-34.77 32.65-34.35 34-33.8L34-33.8 33.75-31 33.45-31Q31.6-32.7 28.8-33.6 26-34.5 23-34.5L23-34.5Q18.5-34.5 15.08-32.38 11.65-30.25 9.73-26.43 7.8-22.6 7.8-17.5L7.8-17.5Q7.8-12.35 9.73-8.55 11.65-4.75 15.05-2.63 18.45-0.5 23-0.5L23-0.5Q26.4-0.5 29.33-1.6 32.25-2.7 34.1-4.3L34.1-4.3ZM40.9-17.5L40.9-17.5Q40.9-21.35 42.27-24.68 43.65-28 46.12-30.48 48.6-32.95 51.92-34.33 55.25-35.7 59.1-35.7L59.1-35.7Q62.95-35.7 66.27-34.33 69.6-32.95 72.07-30.48 74.55-28 75.92-24.68 77.3-21.35 77.3-17.5L77.3-17.5Q77.3-13.65 75.92-10.33 74.55-7 72.07-4.53 69.6-2.05 66.27-0.68 62.95 0.7 59.1 0.7L59.1 0.7Q55.25 0.7 51.92-0.68 48.6-2.05 46.12-4.53 43.65-7 42.27-10.33 40.9-13.65 40.9-17.5ZM44.7-17.5L44.7-17.5Q44.7-12.4 46.5-8.58 48.3-4.75 51.55-2.63 54.8-0.5 59.1-0.5L59.1-0.5Q63.4-0.5 66.65-2.63 69.9-4.75 71.7-8.6 73.5-12.45 73.5-17.5L73.5-17.5Q73.5-22.55 71.7-26.38 69.9-30.2 66.65-32.35 63.4-34.5 59.1-34.5L59.1-34.5Q54.8-34.5 51.57-32.38 48.35-30.25 46.52-26.43 44.7-22.6 44.7-17.5ZM103.2 0L87.8 0 87.8-35 103.05-35 103.05-32.55 94.3-33.7Q92-34 91.2-34L91.2-34 91.2-18.75Q91.85-18.75 94.3-18.9L94.3-18.9 102.5-19.4 102.5-17.1 94.3-17.6Q91.85-17.75 91.2-17.75L91.2-17.75 91.2-1Q92.1-1 94.35-1.3L94.35-1.3 103.2-2.45 103.2 0ZM113.19-14L113.19-35 116.59-35 116.59-13.9Q116.59-7.85 119.57-4.48 122.54-1.1 127.94-1.1L127.94-1.1Q131.34-1.1 133.87-2.43 136.39-3.75 137.77-6.1 139.14-8.45 139.04-11.5L139.04-11.5 138.19-35 141.59-35 140.74-11.5Q140.54-5.5 137.17-2.4 133.79 0.7 127.54 0.7L127.54 0.7Q120.79 0.7 116.99-3.23 113.19-7.15 113.19-14L113.19-14ZM153.59 0L153.59-35 160.29-35Q165.59-35 168.52-32.77 171.44-30.55 171.44-26.55L171.44-26.55Q171.44-23.45 169.62-21.4 167.79-19.35 164.34-18.65L164.34-18.65 164.34-18.35Q167.64-17.7 169.74-15.25 171.84-12.8 172.89-9.2L172.89-9.2Q173.84-5.9 174.77-4.08 175.69-2.25 176.82-1.45 177.94-0.65 179.49-0.3L179.49-0.3 179.49 0 177.44 0Q175.24 0 173.82-0.8 172.39-1.6 171.39-3.5 170.39-5.4 169.49-8.75L169.49-8.75Q168.04-13.9 165.64-16.05 163.24-18.2 159.79-18.2L159.79-18.2 159.49-18.2 159.49-19.1 159.79-19.1Q167.84-19.1 167.84-26.5L167.84-26.5Q167.84-33.8 160.29-33.8L160.29-33.8 156.99-33.8 156.99 0 153.59 0ZM210.19 0L199.19 0 199.19-35 210.19-35Q215.99-35 220.29-32.8 224.59-30.6 226.99-26.68 229.39-22.75 229.39-17.5L229.39-17.5Q229.39-12.25 226.99-8.33 224.59-4.4 220.29-2.2 215.99 0 210.19 0L210.19 0ZM210.19-33.8L210.19-33.8 202.59-33.8 202.59-1.2 210.19-1.2Q217.44-1.2 221.51-5.5 225.59-9.8 225.59-17.5L225.59-17.5Q225.59-25.2 221.51-29.5 217.44-33.8 210.19-33.8ZM240.43-32L240.43-32 239.03-23.6 238.13-23.6 236.73-32Q236.63-32.6 236.63-33.15L236.63-33.15Q236.63-34 237.03-34.75 237.43-35.5 238.58-35.5L238.58-35.5Q239.73-35.5 240.13-34.75 240.53-34 240.53-33.15L240.53-33.15Q240.53-32.85 240.51-32.55 240.48-32.25 240.43-32ZM246.13 0L242.48 0 255.93-35 259.03-35 272.48 0 268.83 0 262.63-16.4 251.28-16.4 246.13 0ZM256.58-32.4L256.28-32.4 251.63-17.6 262.18-17.6 256.58-32.4ZM280.58 0L280.58-35 283.98-35 283.98-1Q284.93-1 286.98-1.3L286.98-1.3 295.28-2.55 295.28 0 280.58 0ZM319.03 0L303.63 0 303.63-35 318.88-35 318.88-32.55 310.13-33.7Q307.83-34 307.03-34L307.03-34 307.03-18.75Q307.68-18.75 310.13-18.9L310.13-18.9 318.33-19.4 318.33-17.1 310.13-17.6Q307.68-17.75 307.03-17.75L307.03-17.75 307.03-1Q307.93-1 310.18-1.3L310.18-1.3 319.03-2.45 319.03 0ZM332.17 0L328.77 0 330.02-35.7 330.62-35.7 355.77-5.3 356.07-5.3 354.97-35 358.37-35 357.12 0.7 356.52 0.7 331.37-29.7 331.07-29.7 332.17 0ZM386.02 0L370.62 0 370.62-35 385.87-35 385.87-32.55 377.12-33.7Q374.82-34 374.02-34L374.02-34 374.02-18.75Q374.67-18.75 377.12-18.9L377.12-18.9 385.32-19.4 385.32-17.1 377.12-17.6Q374.67-17.75 374.02-17.75L374.02-17.75 374.02-1Q374.92-1 377.17-1.3L377.17-1.3 386.02-2.45 386.02 0ZM393.77-2.1L393.77-2.1Q393.77-3.25 394.52-3.98 395.27-4.7 396.47-4.7L396.47-4.7Q397.87-4.7 398.59-3.68 399.32-2.65 399.32-0.75L399.32-0.75Q399.32 1.7 398.09 3.83 396.87 5.95 394.67 7.45L394.67 7.45 394.17 6.7Q397.62 4.1 397.82-0.6L397.82-0.6Q397.22 0.35 396.07 0.35L396.07 0.35Q395.02 0.35 394.39-0.35 393.77-1.05 393.77-2.1ZM426.61 0L423.21 0 423.21-35 426.61-35 426.61 0ZM450.61 0L439.61 0 439.61-35 450.61-35Q456.41-35 460.71-32.8 465.01-30.6 467.41-26.68 469.81-22.75 469.81-17.5L469.81-17.5Q469.81-12.25 467.41-8.33 465.01-4.4 460.71-2.2 456.41 0 450.61 0L450.61 0ZM450.61-33.8L450.61-33.8 443.01-33.8 443.01-1.2 450.61-1.2Q457.86-1.2 461.94-5.5 466.01-9.8 466.01-17.5L466.01-17.5Q466.01-25.2 461.94-29.5 457.86-33.8 450.61-33.8ZM478.26 0L474.61 0 488.06-35 491.16-35 504.61 0 500.96 0 494.76-16.4 483.41-16.4 478.26 0ZM488.71-32.4L488.41-32.4 483.76-17.6 494.31-17.6 488.71-32.4ZM516.11 0L512.7 0 512.7-35 516.11-35 516.11-18.8 537.11-18.8 537.11-35 540.5-35 540.5 0 537.11 0 537.11-17.6 516.11-17.6 516.11 0ZM551-17.5L551-17.5Q551-21.35 552.38-24.68 553.75-28 556.23-30.48 558.7-32.95 562.03-34.33 565.35-35.7 569.2-35.7L569.2-35.7Q573.05-35.7 576.38-34.33 579.7-32.95 582.18-30.48 584.65-28 586.03-24.68 587.4-21.35 587.4-17.5L587.4-17.5Q587.4-13.65 586.03-10.33 584.65-7 582.18-4.53 579.7-2.05 576.38-0.68 573.05 0.7 569.2 0.7L569.2 0.7Q565.35 0.7 562.03-0.68 558.7-2.05 556.23-4.53 553.75-7 552.38-10.33 551-13.65 551-17.5ZM554.8-17.5L554.8-17.5Q554.8-12.4 556.6-8.58 558.4-4.75 561.65-2.63 564.9-0.5 569.2-0.5L569.2-0.5Q573.5-0.5 576.75-2.63 580-4.75 581.8-8.6 583.6-12.45 583.6-17.5L583.6-17.5Q583.6-22.55 581.8-26.38 580-30.2 576.75-32.35 573.5-34.5 569.2-34.5L569.2-34.5Q564.9-34.5 561.68-32.38 558.45-30.25 556.63-26.43 554.8-22.6 554.8-17.5Z" opacity="1" transform="matrix(1,0,0,1,0,0)" fill="#152232" class="wordmark-text-0" data-fill-palette-color="primary" id="text-0"></path></svg></g></svg></g></svg></g></svg></g></svg></g><defs></defs></svg><rect width="395.52" height="29.25132916273888" fill="none" stroke="none" visibility="hidden"></rect></g></svg></g></svg>