<svg xmlns="http://www.w3.org/2000/svg" version="1.1" xmlns:xlink="http://www.w3.org/1999/xlink" xmlns:svgjs="http://svgjs.dev/svgjs" width="2000" height="126" viewBox="0 0 2000 126"><g transform="matrix(1,0,0,1,-1.2121212121212466,-0.7376719409644537)"><svg viewBox="0 0 396 25" data-background-color="#ffffff" preserveAspectRatio="xMidYMid meet" height="126" width="2000" xmlns="http://www.w3.org/2000/svg" xmlns:xlink="http://www.w3.org/1999/xlink"><g id="tight-bounds" transform="matrix(1,0,0,1,0.2400000000000091,0.1463634803500895)"><svg viewBox="0 0 395.52 24.70727303929981" height="24.70727303929981" width="395.52"><g><svg viewBox="0 0 395.52 24.70727303929981" height="24.70727303929981" width="395.52"><g><svg viewBox="0 0 395.52 24.70727303929981" height="24.70727303929981" width="395.52"><g id="textblocktransform"><svg viewBox="0 0 395.52 24.70727303929981" height="24.70727303929981" width="395.52" id="textblock"><g><svg viewBox="0 0 395.52 24.70727303929981" height="24.70727303929981" width="395.52"><g transform="matrix(1,0,0,1,0,0)"><svg width="395.52" viewBox="6.5 -35.7 582.65 36.400000000000006" height="24.70727303929981" data-palette-color="#152232"><path d="M9.9 0L6.5 0 6.5-35 21.2-35 21.2-32.55 12.9-33.7Q10.65-34 9.9-34L9.9-34 9.9-18.35Q10.7-18.35 13-18.5L13-18.5 20.65-19 20.65-16.7 13-17.2Q10.7-17.35 9.9-17.35L9.9-17.35 9.9 0ZM30.95 0L30.95-35 37.65-35Q42.95-35 45.87-32.77 48.8-30.55 48.8-26.55L48.8-26.55Q48.8-23.45 46.97-21.4 45.15-19.35 41.7-18.65L41.7-18.65 41.7-18.35Q45-17.7 47.1-15.25 49.2-12.8 50.25-9.2L50.25-9.2Q51.2-5.9 52.12-4.08 53.05-2.25 54.17-1.45 55.3-0.65 56.85-0.3L56.85-0.3 56.85 0 54.8 0Q52.6 0 51.17-0.8 49.75-1.6 48.75-3.5 47.75-5.4 46.85-8.75L46.85-8.75Q45.4-13.9 43-16.05 40.6-18.2 37.15-18.2L37.15-18.2 36.85-18.2 36.85-19.1 37.15-19.1Q45.2-19.1 45.2-26.5L45.2-26.5Q45.2-33.8 37.65-33.8L37.65-33.8 34.35-33.8 34.35 0 30.95 0ZM59.55-17.5L59.55-17.5Q59.55-21.35 60.92-24.68 62.3-28 64.77-30.48 67.25-32.95 70.57-34.33 73.9-35.7 77.75-35.7L77.75-35.7Q81.59-35.7 84.92-34.33 88.25-32.95 90.72-30.48 93.19-28 94.57-24.68 95.95-21.35 95.95-17.5L95.95-17.5Q95.95-13.65 94.57-10.33 93.19-7 90.72-4.53 88.25-2.05 84.92-0.68 81.59 0.7 77.75 0.7L77.75 0.7Q73.9 0.7 70.57-0.68 67.25-2.05 64.77-4.53 62.3-7 60.92-10.33 59.55-13.65 59.55-17.5ZM63.34-17.5L63.34-17.5Q63.34-12.4 65.15-8.58 66.95-4.75 70.2-2.63 73.45-0.5 77.75-0.5L77.75-0.5Q82.05-0.5 85.3-2.63 88.55-4.75 90.34-8.6 92.15-12.45 92.15-17.5L92.15-17.5Q92.15-22.55 90.34-26.38 88.55-30.2 85.3-32.35 82.05-34.5 77.75-34.5L77.75-34.5Q73.45-34.5 70.22-32.38 67-30.25 65.17-26.43 63.34-22.6 63.34-17.5ZM109.09 0L105.69 0 106.94-35.7 107.54-35.7 132.69-5.3 132.99-5.3 131.89-35 135.29-35 134.04 0.7 133.44 0.7 108.29-29.7 107.99-29.7 109.09 0ZM158.94 0L155.54 0 155.54-34Q154.79-34 152.44-33.7L152.44-33.7 142.64-32.45 142.64-35 171.84-35 171.84-32.45 162.04-33.7Q159.69-34 158.94-34L158.94-34 158.94 0ZM208.84 0L193.44 0 193.44-35 208.69-35 208.69-32.55 199.94-33.7Q197.64-34 196.84-34L196.84-34 196.84-18.75Q197.49-18.75 199.94-18.9L199.94-18.9 208.14-19.4 208.14-17.1 199.94-17.6Q197.49-17.75 196.84-17.75L196.84-17.75 196.84-1Q197.74-1 199.99-1.3L199.99-1.3 208.84-2.45 208.84 0ZM221.98 0L218.58 0 219.83-35.7 220.43-35.7 245.58-5.3 245.88-5.3 244.78-35 248.18-35 246.93 0.7 246.33 0.7 221.18-29.7 220.88-29.7 221.98 0ZM271.43 0L260.43 0 260.43-35 271.43-35Q277.23-35 281.53-32.8 285.83-30.6 288.23-26.68 290.63-22.75 290.63-17.5L290.63-17.5Q290.63-12.25 288.23-8.33 285.83-4.4 281.53-2.2 277.23 0 271.43 0L271.43 0ZM271.43-33.8L271.43-33.8 263.83-33.8 263.83-1.2 271.43-1.2Q278.68-1.2 282.76-5.5 286.83-9.8 286.83-17.5L286.83-17.5Q286.83-25.2 282.76-29.5 278.68-33.8 271.43-33.8ZM325.63 0L314.63 0 314.63-35 325.63-35Q331.43-35 335.73-32.8 340.03-30.6 342.43-26.68 344.83-22.75 344.83-17.5L344.83-17.5Q344.83-12.25 342.43-8.33 340.03-4.4 335.73-2.2 331.43 0 325.63 0L325.63 0ZM325.63-33.8L325.63-33.8 318.03-33.8 318.03-1.2 325.63-1.2Q332.88-1.2 336.95-5.5 341.03-9.8 341.03-17.5L341.03-17.5Q341.03-25.2 336.95-29.5 332.88-33.8 325.63-33.8ZM370.72 0L355.32 0 355.32-35 370.57-35 370.57-32.55 361.82-33.7Q359.52-34 358.72-34L358.72-34 358.72-18.75Q359.37-18.75 361.82-18.9L361.82-18.9 370.02-19.4 370.02-17.1 361.82-17.6Q359.37-17.75 358.72-17.75L358.72-17.75 358.72-1Q359.62-1 361.87-1.3L361.87-1.3 370.72-2.45 370.72 0ZM392.22 0.7L376.32-35 380.07-35 393.72-3.9 394.02-3.9 405.47-35 409.22-35 393.32 0.7 392.22 0.7ZM432.42 0L417.02 0 417.02-35 432.27-35 432.27-32.55 423.52-33.7Q421.22-34 420.42-34L420.42-34 420.42-18.75Q421.07-18.75 423.52-18.9L423.52-18.9 431.72-19.4 431.72-17.1 423.52-17.6Q421.07-17.75 420.42-17.75L420.42-17.75 420.42-1Q421.32-1 423.57-1.3L423.57-1.3 432.42-2.45 432.42 0ZM442.92 0L442.92-35 446.31-35 446.31-1Q447.27-1 449.31-1.3L449.31-1.3 457.62-2.55 457.62 0 442.92 0ZM461.96-17.5L461.96-17.5Q461.96-21.35 463.34-24.68 464.71-28 467.19-30.48 469.66-32.95 472.99-34.33 476.31-35.7 480.16-35.7L480.16-35.7Q484.01-35.7 487.34-34.33 490.66-32.95 493.14-30.48 495.61-28 496.99-24.68 498.36-21.35 498.36-17.5L498.36-17.5Q498.36-13.65 496.99-10.33 495.61-7 493.14-4.53 490.66-2.05 487.34-0.68 484.01 0.7 480.16 0.7L480.16 0.7Q476.31 0.7 472.99-0.68 469.66-2.05 467.19-4.53 464.71-7 463.34-10.33 461.96-13.65 461.96-17.5ZM465.76-17.5L465.76-17.5Q465.76-12.4 467.56-8.58 469.36-4.75 472.61-2.63 475.86-0.5 480.16-0.5L480.16-0.5Q484.46-0.5 487.71-2.63 490.96-4.75 492.76-8.6 494.56-12.45 494.56-17.5L494.56-17.5Q494.56-22.55 492.76-26.38 490.96-30.2 487.71-32.35 484.46-34.5 480.16-34.5L480.16-34.5Q475.86-34.5 472.64-32.38 469.41-30.25 467.59-26.43 465.76-22.6 465.76-17.5ZM512.26 0L508.86 0 508.86-35 515.11-35Q521.16-35 524.51-32.43 527.86-29.85 527.86-25.25L527.86-25.25Q527.86-20.65 524.51-18.07 521.16-15.5 515.11-15.5L515.11-15.5 512.26-15.5 512.26 0ZM515.11-33.8L515.11-33.8 512.26-33.8 512.26-16.7 515.11-16.7Q524.26-16.7 524.26-25.25L524.26-25.25Q524.26-33.8 515.11-33.8ZM552.76 0L537.36 0 537.36-35 552.61-35 552.61-32.55 543.86-33.7Q541.56-34 540.76-34L540.76-34 540.76-18.75Q541.41-18.75 543.86-18.9L543.86-18.9 552.06-19.4 552.06-17.1 543.86-17.6Q541.41-17.75 540.76-17.75L540.76-17.75 540.76-1Q541.66-1 543.91-1.3L543.91-1.3 552.76-2.45 552.76 0ZM563.25 0L563.25-35 569.96-35Q575.25-35 578.18-32.77 581.11-30.55 581.11-26.55L581.11-26.55Q581.11-23.45 579.28-21.4 577.46-19.35 574-18.65L574-18.65 574-18.35Q577.3-17.7 579.4-15.25 581.5-12.8 582.55-9.2L582.55-9.2Q583.5-5.9 584.43-4.08 585.36-2.25 586.48-1.45 587.61-0.65 589.15-0.3L589.15-0.3 589.15 0 587.11 0Q584.9 0 583.48-0.8 582.05-1.6 581.05-3.5 580.05-5.4 579.15-8.75L579.15-8.75Q577.71-13.9 575.3-16.05 572.9-18.2 569.46-18.2L569.46-18.2 569.15-18.2 569.15-19.1 569.46-19.1Q577.5-19.1 577.5-26.5L577.5-26.5Q577.5-33.8 569.96-33.8L569.96-33.8 566.65-33.8 566.65 0 563.25 0Z" opacity="1" transform="matrix(1,0,0,1,0,0)" fill="#152232" class="wordmark-text-0" data-fill-palette-color="primary" id="text-0"></path></svg></g></svg></g></svg></g></svg></g></svg></g><defs></defs></svg><rect width="395.52" height="24.70727303929981" fill="none" stroke="none" visibility="hidden"></rect></g></svg></g></svg>