<svg xmlns="http://www.w3.org/2000/svg" version="1.1" xmlns:xlink="http://www.w3.org/1999/xlink" xmlns:svgjs="http://svgjs.dev/svgjs" width="2000" height="454" viewBox="0 0 2000 454"><g transform="matrix(1,0,0,1,-1.2121212121212466,0.19138432070351996)"><svg viewBox="0 0 396 90" data-background-color="#f9f9f9" preserveAspectRatio="xMidYMid meet" height="454" width="2000" xmlns="http://www.w3.org/2000/svg" xmlns:xlink="http://www.w3.org/1999/xlink"><g id="tight-bounds" transform="matrix(1,0,0,1,0.2400000000000091,-0.03793962304695242)"><svg viewBox="0 0 395.52 90.07587924609393" height="90.07587924609393" width="395.52"><g><svg viewBox="0 0 395.52 90.07587924609393" height="90.07587924609393" width="395.52"><g transform="matrix(1,0,0,1,0,55.67050703913969)"><svg viewBox="0 0 395.52 34.40537220695424" height="34.40537220695424" width="395.52"><g id="textblocktransform"><svg viewBox="0 0 395.52 34.40537220695424" height="34.40537220695424" width="395.52" id="textblock"><g><svg viewBox="0 0 395.52 34.40537220695424" height="34.40537220695424" width="395.52"><g transform="matrix(1,0,0,1,0,0)"><svg width="395.52" viewBox="1.6 -35.7 411.91999999999996 36.400000000000006" height="34.40537220695424" data-palette-color="#030303"><g class="wordmark-text-0" data-fill-palette-color="primary" id="text-0"><path d="M16 0.7L1.6-35 5.25-35 17.5-4.4 17.8-4.4 25.8-24.2 21.45-35 25.1-35 37.3-4.5 37.6-4.5 47.7-35 51.35-35 36.95 0.7 35.85 0.7 26.5-22.55 17.1 0.7 16 0.7ZM62.55 0L59.15 0 59.15-35 62.55-35 62.55 0ZM75.55 0L75.55-35 78.95-35 78.95-1Q79.9-1 81.95-1.3L81.95-1.3 90.25-2.55 90.25 0 75.55 0ZM98.59 0L98.59-35 101.99-35 101.99-1Q102.94-1 104.99-1.3L104.99-1.3 113.29-2.55 113.29 0 98.59 0ZM125.04 0L121.64 0 121.64-35 125.04-35 125.04 0ZM136.49 0L132.84 0 146.29-35 149.39-35 162.84 0 159.19 0 152.99-16.4 141.64-16.4 136.49 0ZM146.94-32.4L146.64-32.4 141.99-17.6 152.54-17.6 146.94-32.4ZM200.29-35L203.89-35 203.89 0 200.49 0 200.49-32.1 200.19-32.1 188.09-8.9 186.54-8.9 172.79-29.35 172.49-29.35 173.59 0 170.19 0 171.44-35.7 172.44-35.7 188.19-12.3 188.49-12.3 200.29-35Z" fill="#030303" data-fill-palette-color="primary"></path><path d="M223.89 0L223.89-35 230.59-35Q235.89-35 238.81-32.77 241.74-30.55 241.74-26.55L241.74-26.55Q241.74-23.45 239.91-21.4 238.09-19.35 234.64-18.65L234.64-18.65 234.64-18.35Q237.94-17.7 240.04-15.25 242.14-12.8 243.19-9.2L243.19-9.2Q244.14-5.9 245.06-4.08 245.99-2.25 247.11-1.45 248.24-0.65 249.79-0.3L249.79-0.3 249.79 0 247.74 0Q245.54 0 244.11-0.8 242.69-1.6 241.69-3.5 240.69-5.4 239.79-8.75L239.79-8.75Q238.34-13.9 235.94-16.05 233.54-18.2 230.09-18.2L230.09-18.2 229.79-18.2 229.79-19.1 230.09-19.1Q238.14-19.1 238.14-26.5L238.14-26.5Q238.14-33.8 230.59-33.8L230.59-33.8 227.29-33.8 227.29 0 223.89 0ZM259.39 0L255.99 0 255.99-35 259.39-35 259.39 0ZM275.03 0L271.63 0 272.88-35.7 273.48-35.7 298.63-5.3 298.93-5.3 297.83-35 301.23-35 299.98 0.7 299.38 0.7 274.23-29.7 273.93-29.7 275.03 0ZM311.93 0L308.28 0 321.73-35 324.83-35 338.28 0 334.63 0 328.43-16.4 317.08-16.4 311.93 0ZM322.38-32.4L322.08-32.4 317.43-17.6 327.98-17.6 322.38-32.4ZM346.38 0L346.38-35 349.78-35 349.78-1Q350.73-1 352.78-1.3L352.78-1.3 361.08-2.55 361.08 0 346.38 0ZM380.43 0L369.43 0 369.43-35 380.43-35Q386.23-35 390.53-32.8 394.83-30.6 397.23-26.68 399.63-22.75 399.63-17.5L399.63-17.5Q399.63-12.25 397.23-8.33 394.83-4.4 390.53-2.2 386.23 0 380.43 0L380.43 0ZM380.43-33.8L380.43-33.8 372.83-33.8 372.83-1.2 380.43-1.2Q387.68-1.2 391.75-5.5 395.83-9.8 395.83-17.5L395.83-17.5Q395.83-25.2 391.75-29.5 387.68-33.8 380.43-33.8ZM413.52 0L410.12 0 410.12-35 413.52-35 413.52 0Z" fill="#030303" data-fill-palette-color="primary"></path></g></svg></g></svg></g></svg></g></svg></g><g transform="matrix(1,0,0,1,155.32542577634823,0)"><svg viewBox="0 0 84.86914844730353 47.548224390010766" height="47.548224390010766" width="84.86914844730353"><g><svg xmlns="http://www.w3.org/2000/svg" xmlns:xlink="http://www.w3.org/1999/xlink" version="1.1" x="0" y="0" viewBox="7.87075108223454 26.398000000000003 84.25830981072525 47.205999999999996" enable-background="new 0 0 100 100" xml:space="preserve" height="47.548224390010766" width="84.86914844730353" class="icon-icon-0" data-fill-palette-color="accent" id="icon-0"><g fill="#030303" data-fill-palette-color="accent"><g fill="#030303" data-fill-palette-color="accent"><g fill="#030303" data-fill-palette-color="accent"><path d="M76.546 73.604H31.05c-1.555 0-2.822-0.65-3.479-1.785-0.653-1.135-0.584-2.557 0.193-3.902l22.748-39.4c0.778-1.346 1.975-2.119 3.285-2.119 1.309 0 2.506 0.773 3.284 2.119l22.747 39.4c0.777 1.348 0.848 2.77 0.193 3.902C79.368 72.953 78.101 73.604 76.546 73.604zM31.11 69.775h45.375L53.798 30.479 31.11 69.775z" fill="#030303" data-fill-palette-color="accent"></path></g><g fill="#030303" data-fill-palette-color="accent"><path d="M36.216 73.604H11.794c-1.557 0-2.822-0.65-3.479-1.785-0.653-1.135-0.584-2.557 0.193-3.902l14.795-25.623c0.775-1.348 1.975-2.119 3.283-2.119s2.506 0.771 3.283 2.119l8.002 13.857-3.314 1.912-7.971-13.805-14.734 25.52h24.362L36.216 73.604 36.216 73.604z" fill="#030303" data-fill-palette-color="accent"></path></g><g fill="#030303" data-fill-palette-color="accent"><path d="M88.207 73.604H72.323v-3.826h15.824l-9.166-15.875-3.797 6.576-3.313-1.914 3.827-6.627c0.777-1.348 1.975-2.119 3.283-2.119 1.31 0 2.508 0.771 3.283 2.119l9.227 15.979c0.777 1.348 0.848 2.77 0.193 3.902C91.028 72.953 89.763 73.604 88.207 73.604z" fill="#030303" data-fill-palette-color="accent"></path></g><g fill="#030303" data-fill-palette-color="accent"><path d="M47.413 54.385c-0.587 0-1.174-0.158-1.688-0.49l-5.561-3.607 2.081-3.211 5.041 3.27 4.733-5.729c1.049-1.27 2.94-1.455 4.217-0.412l4.609 3.768 3.1-3.383 2.822 2.584-3.588 3.918c-1.096 1.193-2.938 1.328-4.195 0.303l-4.535-3.709-4.607 5.576C49.235 53.994 48.327 54.385 47.413 54.385z" fill="#030303" data-fill-palette-color="accent"></path></g></g></g></svg></g></svg></g><g></g></svg></g><defs></defs></svg><rect width="395.52" height="90.07587924609393" fill="none" stroke="none" visibility="hidden"></rect></g></svg></g></svg>