<svg xmlns="http://www.w3.org/2000/svg" version="1.1" xmlns:xlink="http://www.w3.org/1999/xlink" xmlns:svgjs="http://svgjs.dev/svgjs" width="2000" height="530" viewBox="0 0 2000 530"><g transform="matrix(1,0,0,1,-1.2121212121212466,-0.41232358003435365)"><svg viewBox="0 0 396 105" data-background-color="#ffffff" preserveAspectRatio="xMidYMid meet" height="530" width="2000" xmlns="http://www.w3.org/2000/svg" xmlns:xlink="http://www.w3.org/1999/xlink"><g id="tight-bounds" transform="matrix(1,0,0,1,0.2400000000000091,0.0816867469879412)"><svg viewBox="0 0 395.52 104.83662650602409" height="104.83662650602409" width="395.52"><g><svg viewBox="0 0 395.52 104.83662650602409" height="104.83662650602409" width="395.52"><g><svg viewBox="0 0 395.52 104.83662650602409" height="104.83662650602409" width="395.52"><g id="textblocktransform"><svg viewBox="0 0 395.52 104.83662650602409" height="104.83662650602409" width="395.52" id="textblock"><g><svg viewBox="0 0 395.52 104.83662650602409" height="104.83662650602409" width="395.52"><g transform="matrix(1,0,0,1,0,0)"><svg width="395.52" viewBox="3.05 -33 124.49000000000001 33" height="104.83662650602409" data-palette-color="#252422"><path d="M22.45-9L22.45-4.2 3.05-13.3 3.05-19.1 22.45-28.15 22.45-23.25 7-16.45 7-15.8 22.45-9ZM42.15 0L35.45 0 27.2-33 32.15-33 38.75-4.15 39.2-4.15 46-33 52.2-33 58.9-4.15 59.35-4.15 66.1-33 70.9-33 62.45 0 55.85 0 49.3-28.8 48.85-28.8 42.15 0ZM81.5 0L76.89 0 76.89-33 88.39-33Q90.89-33 92.97-32.6 95.05-32.2 96.67-31.4 98.3-30.6 99.42-29.45 100.55-28.3 101.12-26.78 101.69-25.25 101.69-23.4L101.69-23.4Q101.69-21.65 101.17-20.2 100.64-18.75 99.59-17.65 98.55-16.55 97-15.88 95.44-15.2 93.39-14.95L93.39-14.95 93.39-14.3Q95.19-14.1 96.55-13.35 97.89-12.6 98.84-11.18 99.8-9.75 100.5-7.4L100.5-7.4 102.59 0 97.64 0 95.94-6.75Q95.5-8.8 94.42-10.05 93.34-11.3 91.75-11.9 90.14-12.5 88-12.5L88-12.5 81.5-12.5 81.5 0ZM81.5-29.2L81.5-16.25 88-16.25Q92.44-16.25 94.72-17.85 97-19.45 97-22.75L97-22.75Q97-26.05 94.82-27.63 92.64-29.2 88.09-29.2L88.09-29.2 81.5-29.2ZM127.54-13.3L108.14-4.2 108.14-9 123.59-15.8 123.59-16.45 108.14-23.25 108.14-28.15 127.54-19.1 127.54-13.3Z" opacity="1" transform="matrix(1,0,0,1,0,0)" fill="#252422" class="wordmark-text-0" data-fill-palette-color="primary" id="text-0"></path></svg></g></svg></g></svg></g></svg></g><g></g></svg></g><defs></defs></svg><rect width="395.52" height="104.83662650602409" fill="none" stroke="none" visibility="hidden"></rect></g></svg></g></svg>